<?xml version="1.0" encoding="utf-8"?>
<!-- Generator: Adobe Illustrator 19.0.0, SVG Export Plug-In . SVG Version: 6.00 Build 0)  -->
<svg version="1.1" id="Capa_1" xmlns="http://www.w3.org/2000/svg" xmlns:xlink="http://www.w3.org/1999/xlink" x="0px" y="0px"
	 viewBox="0 0 595.3 340.2" style="enable-background:new 0 0 595.3 340.2;" xml:space="preserve">
<style type="text/css">
	.st0{fill:#551743;}
	.st1{fill:url(#XMLID_69_);}
	.st2{fill:#FFFFFF;}
	.st3{fill:#B52E2E;}
	.st4{fill:#030104;}
	.st5{fill:url(#XMLID_70_);}
	.st6{fill:url(#XMLID_71_);}
	.st7{opacity:0.6;}
	.st8{fill:#4C642D;stroke:#4C642D;stroke-width:15;stroke-linecap:round;stroke-linejoin:round;stroke-miterlimit:10;}
	.st9{fill:#4C642D;}
	.st10{fill:#FFFFFF;stroke:#FFFFFF;stroke-width:15;stroke-linecap:round;stroke-linejoin:round;stroke-miterlimit:10;}
	.st11{fill:#272424;}
	.st12{fill:#373636;}
	.st13{fill:#6D6D70;}
	.st14{fill:#8A182E;}
	.st15{fill:#C23449;}
	.st16{fill:#A62742;}
	.st17{fill:#10B0C1;}
	.st18{fill:#3CE1E5;}
	.st19{fill:#87AD36;}
	.st20{fill:#BACA48;}
	.st21{fill:#E2C038;}
	.st22{fill:#EBDD42;}
	.st23{fill:url(#XMLID_72_);}
	.st24{fill:url(#XMLID_73_);}
	.st25{fill:#151710;}
	.st26{fill:url(#XMLID_74_);}
	.st27{fill:url(#XMLID_75_);}
	.st28{fill:url(#XMLID_76_);}
	.st29{fill:url(#XMLID_77_);}
	.st30{fill:url(#XMLID_78_);}
	.st31{fill:#130E0D;}
</style>
<g id="XMLID_2_">
	<path id="XMLID_45_" class="st0" d="M87.8,243.7l-0.1-1.6l-0.1-1.6l-0.1-1.6l-0.1-1.6l-0.1-1.6l-0.1-1.6l-0.1-1.6l-0.1-1.6
		l-0.1-1.6l-0.1-1.6l-2.5-40.1c12.7-7.4,19.8-17,21.3-28.8l4.1-53.5c0-0.3-0.1-0.6-0.2-1l0.1-0.7c0-0.3-0.1-0.6-0.2-1l0.1-0.7
		c0-0.3-0.1-0.6-0.2-1l0.1-0.7c0-0.3-0.1-0.6-0.2-1l0.1-0.7c0-0.3-0.1-0.6-0.2-1l0.1-0.7c0-0.3-0.1-0.6-0.2-1l0.1-0.7
		c0-0.3-0.1-0.6-0.2-1l0.1-0.7c0-0.3-0.1-0.6-0.2-1l0.1-0.7c0-0.3-0.1-0.6-0.2-1l0.1-0.7c0-0.3-0.1-0.6-0.2-1l0.1-0.7
		c-0.7-5.1-2.7-7.9-6.1-8.5l-35.7,2.3c-3.3,1-5,4.1-5,9.2l-3.6,49.4L48,92.9c-0.7-5.1-2.7-7.9-6.1-8.5L6.2,86.7c-3.3,1-5,4.1-5,9.2
		l0.1,0.6c0,0.3,0,0.6,0,1l0.1,0.6c0,0.3,0,0.6,0,1l0.1,0.6c0,0.3,0,0.6,0,1l0.1,0.6c0,0.3,0,0.6,0,1l0.1,0.6c0,0.3,0,0.6,0,1
		l0.1,0.6c0,0.3,0,0.6,0,1l0.1,0.6c0,0.3,0,0.6,0,1l0.1,0.6c0,0.3,0,0.6,0,1l0.1,0.6c0,0.3,0,0.6,0,1l0.1,0.6c0,0.3,0,0.6,0,1
		L13,164.6c3,11.4,11.1,19.9,24.4,25.7l2.6,40.3l0.1,1.6l0.1,1.6l0.1,1.6l0.1,1.6l0.1,1.6l0.1,1.6l0.1,1.6l0.1,1.6l0.1,1.6l0.1,1.6
		c0.7,5.1,2.7,7.9,6.1,8.5l35.7-2.3C86.1,251.9,87.8,248.9,87.8,243.7z M39.5,188.5l-0.1-1.5l0-0.1l-0.1-1.5l0-0.1l-0.1-1.5l0-0.1
		l-0.1-1.5l0-0.1l-0.1-1.5l0-0.1l-0.1-1.5l0-0.1l-0.1-1.5l0-0.1l-0.1-1.5l0-0.1l-0.1-1.5l0-0.1l-0.1-1.5l-1.3-0.6
		c-12.5-5.4-20.3-13.5-23-24l-8.5-41.2c0.6-0.8,1.3-1.3,1.9-1.5l35.2-2.2c1.5,0.3,3.4,1.4,4,6.4l0,0.1l0,0.1L57,158.1l3.3,15.6
		l1.2-15.9l3.6-49.4l0-0.1l0-0.1c0-5,1.8-6.3,3.2-6.8l35.2-2.2c0.7,0.1,1.4,0.5,2.1,1.2l-3.2,41.9c-1.4,10.9-8.2,20-20.2,26.9
		l-1.3,0.7l0.1,1.5l0,0.1l0.1,1.5l0,0.1l0.1,1.5l0,0.1l0.1,1.5l0,0.1l0.1,1.5l0,0.1l0.1,1.5l0,0.1l0.1,1.5l0,0.1l0.1,1.5l0,0.1
		l0.1,1.5l0,0.1l0.1,1.5l0,0.1l0.1,1.5l2.5,40c-0.1,4.9-1.8,6.2-3.2,6.7l-35.2,2.2c-1.5-0.3-3.3-1.4-4-6.3l-2.6-40.2L39.5,188.5
		L39.5,188.5z"/>
	
		<linearGradient id="XMLID_69_" gradientUnits="userSpaceOnUse" x1="59.6397" y1="234.8955" x2="59.6397" y2="83.4507" gradientTransform="matrix(0.998 -6.334229e-002 6.466565e-002 1.0188 -10.5746 2.3733)">
		<stop  offset="0" style="stop-color:#C85743"/>
		<stop  offset="7.280982e-002" style="stop-color:#CE6E43"/>
		<stop  offset="0.1796" style="stop-color:#D58441"/>
		<stop  offset="0.2953" style="stop-color:#DB963D"/>
		<stop  offset="0.4212" style="stop-color:#E0A539"/>
		<stop  offset="0.5623" style="stop-color:#E4B035"/>
		<stop  offset="0.731" style="stop-color:#E6B631"/>
		<stop  offset="1" style="stop-color:#E7B830"/>
	</linearGradient>
	<path id="XMLID_43_" class="st1" d="M61.8,92c0-5.1,1.7-8.2,5-9.2l35.7-2.3c3.4,0.6,5.4,3.4,6.1,8.5l-4.1,53.5
		c-1.5,11.8-8.6,21.4-21.3,28.8l3.6,56.3c0,5.1-1.7,8.2-5,9.2l-35.7,2.3c-3.4-0.6-5.4-3.4-6.1-8.5l-3.6-56.5
		c-13.3-5.7-21.4-14.3-24.4-25.7L1.2,95.9c0-5.1,1.7-8.2,5-9.2l35.7-2.3c3.4,0.6,5.4,3.4,6.1,8.5l10.2,48.6L61.8,92z"/>
	<path id="XMLID_42_" class="st2" d="M60.2,156.1l0.6,3l0.2-2.3l0.6,3l0.2-2.3l0.6,3l0.2-2.3l0.6,3l1.2-15.9L68,96l0-0.1l0-0.1
		c0-5,1.8-6.3,3.2-6.8l31.1-2l0.1-1.7c-0.1-0.9-0.3-1.6-0.5-2.3l-34.7,2.2c-1.4,0.5-3.1,1.8-3.2,6.8l0,0.1l0,0.1l-3.6,49.4l-1,13.7
		l0.6,3L60.2,156.1z"/>
	<path id="XMLID_41_" class="st2" d="M15,150.6c0.1,0.3,0.2,0.6,0.3,0.9c0.2,0.4,0.3,0.8,0.5,1.1c0.1,0.2,0.2,0.4,0.3,0.6
		c0.2,0.4,0.4,0.9,0.7,1.3c0.1,0.1,0.1,0.2,0.2,0.4c0.3,0.5,0.5,0.9,0.8,1.4c0,0.1,0.1,0.1,0.1,0.2c0.3,0.5,0.6,1,1,1.5
		c0,0,0,0.1,0.1,0.1c0.4,0.5,0.7,1,1.1,1.5c0,0,0,0,0,0c0.4,0.5,0.8,1,1.2,1.5c0.7,0.6,1.5,1.2,2.3,1.7c-2.6-3.3-4.4-7-5.5-11.1
		L7.4,99.4c0.1-4.8,1.8-6.1,3.2-6.6l31.5-2l-0.3-1.3l0-0.1l0-0.1c-0.1-1-0.3-1.8-0.5-2.6L6.6,89.1c-1.4,0.5-3.1,1.8-3.2,6.6
		l10.7,52.2c0.2,0.6,0.4,1.3,0.6,1.9C14.8,150,14.9,150.3,15,150.6z"/>
	<path id="XMLID_40_" class="st2" d="M42.6,177.8l-0.1-1.5l-0.8-0.3l0-0.4l-0.8-0.3l0-0.4l-0.8-0.3l0-0.4l-0.8-0.3l0-0.4l-0.8-0.3
		l0.1,1.1l3.6,56.4c0,0.3,0.1,0.5,0.1,0.8c0,0.1,0,0.2,0.1,0.3c0,0.1,0.1,0.3,0.1,0.4c0,0.1,0.1,0.2,0.1,0.3c0,0.1,0,0.2,0.1,0.3
		c0,0.1,0.1,0.2,0.1,0.4c0,0,0,0,0,0l3.4-0.2L42.6,177.8z"/>
	<path id="XMLID_39_" class="st2" d="M105.4,81.8C105.4,81.8,105.4,81.9,105.4,81.8C105.4,81.9,105.4,81.8,105.4,81.8z"/>
	<path id="XMLID_38_" class="st2" d="M44.7,85.7C44.7,85.7,44.8,85.7,44.7,85.7C44.8,85.7,44.7,85.7,44.7,85.7z"/>
	<path id="XMLID_37_" class="st2" d="M42.7,237.3c0,0-0.1-0.1-0.1-0.1C42.6,237.2,42.7,237.3,42.7,237.3z"/>
	<path id="XMLID_36_" class="st3" d="M37.7,171.7l-0.8-0.3l0-0.4l-0.8-0.3l0-0.4l-0.8-0.3l0-0.4l-0.8-0.3l0-0.4l-1.3-0.6
		c-3.6-1.6-6.8-3.3-9.6-5.3c-0.8-0.6-1.6-1.1-2.3-1.7c-0.4-0.5-0.8-1-1.2-1.5c4,5,9.7,9.1,17.1,12.3l1.3,0.6l-0.8-0.3L37.7,171.7z"
		/>
	<path id="XMLID_35_" class="st3" d="M105.9,82.3c0,0,0.1,0.1,0.1,0.1C106,82.4,106,82.4,105.9,82.3z"/>
	<path id="XMLID_34_" class="st3" d="M45.3,86.2c0,0,0.1,0.1,0.1,0.1C45.4,86.3,45.3,86.2,45.3,86.2z"/>
	<path id="XMLID_33_" class="st3" d="M43.2,237.8C43.2,237.8,43.2,237.8,43.2,237.8C43.2,237.8,43.2,237.8,43.2,237.8z"/>
	<path id="XMLID_32_" class="st3" d="M15.8,152.7c-0.2-0.4-0.3-0.8-0.5-1.1C15.5,151.9,15.7,152.3,15.8,152.7z"/>
	<path id="XMLID_31_" class="st3" d="M15,150.6c-0.1-0.3-0.2-0.6-0.3-0.9C14.8,150,14.9,150.3,15,150.6z"/>
	<path id="XMLID_30_" class="st3" d="M47.8,91.8c0-0.1,0-0.2-0.1-0.3C47.8,91.6,47.8,91.7,47.8,91.8z"/>
	<path id="XMLID_29_" class="st3" d="M16.8,154.6c-0.2-0.4-0.5-0.9-0.7-1.3C16.3,153.7,16.5,154.1,16.8,154.6z"/>
	<path id="XMLID_28_" class="st3" d="M44.1,238.4c0,0-0.1,0-0.1-0.1C44.1,238.3,44.1,238.4,44.1,238.4z"/>
	<path id="XMLID_27_" class="st3" d="M47.6,90.7c0-0.1,0-0.2-0.1-0.3C47.5,90.5,47.6,90.6,47.6,90.7z"/>
	<path id="XMLID_26_" class="st3" d="M46.9,88.6c0-0.1-0.1-0.1-0.1-0.2C46.8,88.5,46.8,88.5,46.9,88.6z"/>
	<path id="XMLID_25_" class="st3" d="M22.5,165.5C22.5,165.6,22.6,165.6,22.5,165.5C22.6,165.6,22.5,165.6,22.5,165.5z"/>
	<path id="XMLID_24_" class="st3" d="M45.9,86.9C45.9,86.9,45.9,86.9,45.9,86.9C45.9,86.9,45.9,86.9,45.9,86.9z"/>
	<path id="XMLID_23_" class="st3" d="M47.2,89.5C47.2,89.4,47.2,89.4,47.2,89.5C47.2,89.4,47.2,89.4,47.2,89.5z"/>
	<path id="XMLID_22_" class="st3" d="M41.8,89.5L41.8,89.5l0.3,1.4l9.9,47.3l3.3,15.6l0.2-2.3l0.6,3l0.2-2.3l0.6,3l0.2-2.3l0.6,3
		l0.2-2.3l0.6,3l0.2-2.3l0.6,3L56,142L45.8,93.4l0-0.1l0-0.1c-0.7-5-2.6-6.1-4-6.4l-0.5,0C41.5,87.6,41.7,88.4,41.8,89.5L41.8,89.5z
		"/>
	<path id="XMLID_21_" class="st3" d="M102.3,87.1l-3.9,51.4c-1.4,10.9-8.2,20-20.2,26.9l-1.3,0.7l0.1,1.5l3.6,56.2
		c-0.1,4.9-1.8,6.2-3.2,6.7l-31.3,2l-3.4,0.2c0.9,2.8,2.3,3.6,3.5,3.8l0.5,0l34.7-2.2c1.4-0.5,3.1-1.8,3.2-6.7L81,171.5l-0.1-1.5
		l1.3-0.7c12-7,18.8-16,20.2-26.9l4-53.2c-0.7-4.7-2.6-5.8-4-6.1l-0.5,0c0.2,0.6,0.4,1.4,0.5,2.3L102.3,87.1z"/>
	<path id="XMLID_20_" class="st3" d="M107.4,84.6c0,0.1,0.1,0.1,0.1,0.2C107.5,84.7,107.5,84.6,107.4,84.6z"/>
	<path id="XMLID_19_" class="st3" d="M17.8,156.3c-0.3-0.5-0.6-0.9-0.8-1.4C17.2,155.4,17.5,155.9,17.8,156.3z"/>
	<path id="XMLID_18_" class="st3" d="M108.4,87.6c0,0.1,0,0.2,0.1,0.3C108.4,87.8,108.4,87.7,108.4,87.6z"/>
	<path id="XMLID_17_" class="st3" d="M107.8,85.5C107.8,85.6,107.9,85.6,107.8,85.5C107.9,85.6,107.8,85.6,107.8,85.5z"/>
	<path id="XMLID_16_" class="st3" d="M108.2,86.6c0,0.1,0,0.2,0.1,0.3C108.2,86.7,108.2,86.7,108.2,86.6z"/>
	<path id="XMLID_15_" class="st3" d="M106.5,83C106.5,83,106.5,83,106.5,83C106.5,83,106.5,83,106.5,83z"/>
	<path id="XMLID_14_" class="st3" d="M46.4,87.7c0,0,0-0.1-0.1-0.1C46.4,87.7,46.4,87.7,46.4,87.7z"/>
	<path id="XMLID_13_" class="st3" d="M107,83.8c0,0,0,0.1,0.1,0.1C107.1,83.8,107,83.8,107,83.8z"/>
	<path id="XMLID_12_" class="st3" d="M42.4,231.4c0-0.1,0-0.2-0.1-0.3C42.3,231.2,42.4,231.3,42.4,231.4z"/>
	<path id="XMLID_11_" class="st3" d="M42.7,232.8c0-0.1-0.1-0.2-0.1-0.4C42.7,232.6,42.7,232.7,42.7,232.8z"/>
	<path id="XMLID_10_" class="st3" d="M42.5,232.2c0-0.1-0.1-0.2-0.1-0.3C42.5,231.9,42.5,232,42.5,232.2z"/>
	<path id="XMLID_9_" class="st3" d="M18.9,158c-0.3-0.5-0.7-1-1-1.5C18.2,157,18.5,157.5,18.9,158z"/>
	<path id="XMLID_8_" class="st3" d="M26.4,168.6c0,0,0.1,0.1,0.1,0.1C26.5,168.7,26.4,168.6,26.4,168.6z"/>
	<path id="XMLID_7_" class="st3" d="M45.1,238.8c0,0-0.1,0-0.1,0C45,238.8,45.1,238.8,45.1,238.8z"/>
	<path id="XMLID_6_" class="st3" d="M20,159.5c-0.4-0.5-0.8-1-1.1-1.5C19.3,158.6,19.7,159.1,20,159.5z"/>
	<path id="XMLID_3_" class="st4" d="M44.1,238.4c0.3,0.1,0.6,0.3,0.8,0.4c0,0,0.1,0,0.1,0c0.3,0.1,0.6,0.2,1,0.2l35.7-2.3
		c3.3-1,5-4.1,5-9.2l-3.6-56.3c12.7-7.4,19.8-17,21.3-28.8l4.1-53.5c-0.1-0.4-0.1-0.8-0.2-1.1c0-0.1,0-0.2-0.1-0.3
		c-0.1-0.3-0.1-0.5-0.2-0.8c0-0.1,0-0.2-0.1-0.3c-0.1-0.3-0.2-0.7-0.3-1c0,0,0-0.1,0-0.1c-0.1-0.3-0.2-0.5-0.3-0.8
		c0-0.1-0.1-0.1-0.1-0.2c-0.1-0.2-0.2-0.5-0.4-0.7c0,0,0-0.1-0.1-0.1c-0.1-0.3-0.3-0.5-0.5-0.7c0,0,0,0,0-0.1
		c-0.1-0.1-0.2-0.3-0.3-0.4c0,0-0.1-0.1-0.1-0.1c0,0-0.1-0.1-0.1-0.1c-0.2-0.2-0.3-0.3-0.5-0.5c0,0,0,0,0,0c0,0,0,0,0,0
		c-0.8-0.6-1.8-1.1-2.8-1.3l-35.7,2.3c-3.3,1-5,4.1-5,9.2l-3.6,49.4L48,92.9c-0.1-0.4-0.1-0.8-0.2-1.1c0-0.1,0-0.2-0.1-0.3
		c-0.1-0.3-0.1-0.5-0.2-0.8c0-0.1,0-0.2-0.1-0.3c-0.1-0.3-0.2-0.7-0.3-1c0,0,0-0.1,0-0.1c-0.1-0.3-0.2-0.5-0.3-0.8
		c0-0.1-0.1-0.1-0.1-0.2c-0.1-0.2-0.2-0.5-0.4-0.7c0,0,0-0.1-0.1-0.1c-0.1-0.3-0.3-0.5-0.5-0.7c0,0,0,0,0-0.1
		c-0.1-0.1-0.2-0.3-0.3-0.4c0,0-0.1-0.1-0.1-0.1c0,0-0.1-0.1-0.1-0.1c-0.2-0.2-0.3-0.3-0.5-0.5c0,0,0,0,0,0c0,0,0,0,0,0
		c-0.8-0.6-1.8-1.1-2.8-1.3L6.2,86.7c-3.3,1-5,4.1-5,9.2L12,148.4c1.6,6.2,4.7,11.5,9.4,16c0.3,0.3,0.5,0.5,0.8,0.8
		c0.1,0.1,0.2,0.2,0.3,0.3c0,0,0.1,0.1,0.1,0.1c1.2,1,2.4,2,3.8,3c0,0,0.1,0.1,0.1,0.1c1.8,1.3,3.8,2.5,6,3.6
		c1.2,0.6,2.5,1.3,3.9,1.8l0.1,2l3.5,54.5c0.4,2.9,1.2,5,2.5,6.5c0,0,0.1,0.1,0.1,0.1c0,0,0.1,0.1,0.1,0.1c0.2,0.2,0.3,0.3,0.5,0.5
		c0,0,0,0,0,0c0,0,0,0,0,0c0.2,0.2,0.5,0.4,0.8,0.5C44.1,238.3,44.1,238.4,44.1,238.4z M3.4,95.6c0.1-4.8,1.8-6.1,3.2-6.6l34.7-2.2
		l0.5,0c1.5,0.3,3.4,1.4,4,6.4l0,0.1l0,0.1L56,142l3.3,15.6l0.2-2.3l1-13.7L64,92.2l0-0.1l0-0.1c0-5,1.8-6.3,3.2-6.8l34.7-2.2l0.5,0
		c1.4,0.3,3.3,1.4,4,6.1l-4,53.2c-1.4,10.9-8.2,20-20.2,26.9l-1.3,0.7l0.1,1.5l3.6,56.2c-0.1,4.9-1.8,6.2-3.2,6.7l-34.7,2.2l-0.5,0
		c-1.2-0.3-2.6-1-3.5-3.8c0,0,0,0,0,0c0-0.1-0.1-0.2-0.1-0.4c0-0.1-0.1-0.2-0.1-0.3c0-0.1-0.1-0.2-0.1-0.3c0-0.1-0.1-0.3-0.1-0.4
		c0-0.1,0-0.2-0.1-0.3c0-0.2-0.1-0.5-0.1-0.8L38.6,174l-0.1-1.1l0-0.4l-1.3-0.6c-7.4-3.2-13.1-7.3-17.1-12.3c0,0,0,0,0,0
		c-0.4-0.5-0.8-1-1.1-1.5c0,0,0-0.1-0.1-0.1c-0.3-0.5-0.7-1-1-1.5c0-0.1-0.1-0.1-0.1-0.2c-0.3-0.5-0.6-0.9-0.8-1.4
		c-0.1-0.1-0.1-0.2-0.2-0.4c-0.2-0.4-0.5-0.9-0.7-1.3c-0.1-0.2-0.2-0.4-0.3-0.6c-0.2-0.4-0.3-0.8-0.5-1.1c-0.1-0.3-0.2-0.6-0.3-0.9
		c-0.1-0.3-0.2-0.6-0.3-0.9c-0.2-0.6-0.4-1.2-0.6-1.9L3.4,95.6z"/>
</g>
<g id="XMLID_154_">
	<path id="XMLID_205_" class="st0" d="M448.3,80.3h-82.7c-7.9,2.7-11.8,12.7-11.8,30v1.6v1.6v1.6v1.6v1.6v1.6v1.6v1.6v1.6v1.6v73.9
		v1.6v1.6v1.6v1.6v1.6v1.6v1.6v1.6v1.6v1.6c0,17.3,3.9,27.2,11.8,30h82.7c7.9-2.7,11.8-12.7,11.8-30v-1.6v-1.6v-1.6v-1.6v-1.6V206
		v-1.6v-1.6v-1.6v-1.6v-8.1v-1.6v-1.6V187v-1.6v-1.6v-1.6v-1.6v-1.6v-1.6v-1.6c-0.4-4.9-2.2-7.8-5.5-8.6h-35.4
		c-3.3,0.8-5.2,3.6-5.5,8.6v1.6v1.6v1.6v1.6v1.6v1.6v1.6v0.3h-13.7v-49h13.7v0.3v1.6v1.6v1.6v1.6v1.6v1.6v1.6
		c0.4,4.9,2.2,7.8,5.5,8.6h35.4c3.3-0.8,5.2-3.6,5.5-8.6v-1.6v-1.6V145v-1.6v-1.6v-1.6v-1.6v-1.6v-1.6V134v-8.1v-1.6v-1.6v-1.6v-1.6
		v-1.6v-1.6V115v-1.6v-1.6v-1.6C460.1,93.1,456.2,83.1,448.3,80.3z M454.3,140.3h-34.9c-1.4-0.4-3.2-1.6-3.6-6.3v-0.3v-0.8v-0.8
		v-0.8v-0.8v-0.8V129v-0.8v-0.8v-0.8v-0.8v-0.8v-0.8v-0.8v-0.8V122v-1.6h-2.2h-13.7h-2.2v1.6v0.8v0.8v0.8v0.8v0.8v0.8v0.8v0.8v0.8
		v0.8v0.8v0.8v0.8v0.8v0.8v0.8v0.8v0.8v0.8v1.6v49v1.6v0.8v0.8v0.8v0.8v0.8v0.8v0.8v0.8v0.8v0.8v0.8v0.8v0.8v0.8v0.8v0.8v0.8v0.8
		v0.8v1.6h2.2h13.7h2.2v-1.6V203v-0.8v-0.8v-0.8v-0.8v-0.8v-0.8v-0.8v-0.8v-0.8v-0.8v-0.8v-0.8v-0.8V192v-0.3
		c0.4-4.8,2.2-5.9,3.6-6.3h34.9c1.4,0.4,3.2,1.6,3.6,6.3v8c0,15.8-3.4,25.1-10,27.6H366c-6.6-2.5-10-11.8-10-27.6v-73.9
		c0-15.8,3.4-25.1,10-27.6h81.9c6.6,2.5,10,11.8,10,27.6v8C457.5,138.7,455.7,139.9,454.3,140.3z"/>
	<linearGradient id="XMLID_70_" gradientUnits="userSpaceOnUse" x1="406.9531" y1="229.7554" x2="406.9531" y2="80.3466">
		<stop  offset="0" style="stop-color:#C85743"/>
		<stop  offset="7.280982e-002" style="stop-color:#CE6E43"/>
		<stop  offset="0.1796" style="stop-color:#D58441"/>
		<stop  offset="0.2953" style="stop-color:#DB963D"/>
		<stop  offset="0.4212" style="stop-color:#E0A539"/>
		<stop  offset="0.5623" style="stop-color:#E4B035"/>
		<stop  offset="0.731" style="stop-color:#E6B631"/>
		<stop  offset="1" style="stop-color:#E7B830"/>
	</linearGradient>
	<path id="XMLID_203_" class="st5" d="M353.8,110.3c0-17.2,3.9-27.2,11.8-30h82.7c7.9,2.7,11.8,12.7,11.8,30V134
		c-0.4,4.9-2.2,7.8-5.5,8.6h-35.4c-3.3-0.8-5.2-3.6-5.5-8.6v-11.3h-13.7v64.6h13.7v-11.3c0.4-4.9,2.2-7.8,5.5-8.6h35.4
		c3.3,0.8,5.2,3.6,5.5,8.6v23.7c0,17.3-3.9,27.2-11.8,30h-82.7c-7.9-2.7-11.8-12.7-11.8-30V110.3z"/>
	<path id="XMLID_202_" class="st2" d="M419.5,136.4v-9.7v-2.3h-0.7v-0.8H418v-0.8h-0.7V122h-0.7v-0.8h-0.7v1.6v11.2
		c0,0.3,0,0.5,0.1,0.8c0,0.1,0,0.2,0,0.3c0,0.1,0,0.3,0.1,0.4c0,0.1,0,0.2,0.1,0.3c0,0.1,0,0.2,0.1,0.3c0,0.1,0.1,0.2,0.1,0.4H419.5
		z"/>
	<path id="XMLID_201_" class="st2" d="M457.3,168.9C457.3,168.9,457.3,168.9,457.3,168.9C457.3,168.9,457.3,168.9,457.3,168.9z"/>
	<path id="XMLID_200_" class="st2" d="M453.2,83.5c-0.1-0.1-0.1-0.1-0.2-0.2c0,0,0,0,0,0C453.1,83.4,453.1,83.4,453.2,83.5z"/>
	<path id="XMLID_199_" class="st2" d="M415.9,140.7c0,0-0.1-0.1-0.1-0.1C415.8,140.6,415.8,140.6,415.9,140.7z"/>
	<path id="XMLID_198_" class="st2" d="M362.3,223.5h0.4c-1.9-4.7-2.9-11.3-2.9-19.8v-89.5c0-15.8,3.4-25.1,10-27.6h81.6
		c-0.4-1.1-0.9-2.1-1.5-2.9c0,0,0,0,0,0c-0.3-0.2-0.6-0.4-0.9-0.5c-0.3-0.2-0.6-0.3-1-0.5H366c-6.6,2.5-10,11.8-10,27.6v89.5
		c0,0.9,0,1.7,0,2.5c0,0.2,0,0.4,0,0.7c0,0.8,0.1,1.5,0.1,2.3c0,0.1,0,0.2,0,0.3c0,0.7,0.1,1.3,0.1,1.9c0,0.3,0,0.5,0.1,0.8
		c0.1,0.5,0.1,1.1,0.2,1.6c0,0.4,0.1,0.7,0.1,1c0.1,0.4,0.1,0.8,0.2,1.2c0.1,0.3,0.1,0.6,0.2,1c0.1,0.3,0.1,0.6,0.2,0.8
		c0.1,0.6,0.3,1.1,0.4,1.7c0,0.2,0.1,0.3,0.1,0.5c0.1,0.4,0.2,0.7,0.3,1.1c0,0.1,0,0.1,0.1,0.2c0.2,0.7,0.5,1.4,0.7,2.1
		c0,0,0,0.1,0,0.1c0.4,1.1,0.9,2,1.5,2.9C361,222.9,361.6,223.3,362.3,223.5z"/>
	<path id="XMLID_197_" class="st2" d="M399.2,190.5v0.8h0.7v0.8h0.7v0.8h0.7v0.8h2.2h13.7h2.2v-2.3v-11.2c0.4-4.8,2.2-5.9,3.6-6.3
		h31.1v-1.5c-0.1-0.9-0.2-1.7-0.4-2.4h-34.4c-1.4,0.4-3.2,1.6-3.6,6.3v11.2v2.3h-2.2h-13.7h-1.5v0.8H399.2z"/>
	<polygon id="XMLID_196_" class="st3" points="415.1,120.4 415.1,119.6 414.3,119.6 414.3,118.9 413.6,118.9 413.6,118.1 
		412.9,118.1 412.9,117.3 412.1,117.3 412.1,116.5 409.9,116.5 396.2,116.5 394,116.5 394,118.9 394,183.4 394,185.8 394.8,185.8 
		394.8,186.6 395.5,186.6 395.5,187.3 396.2,187.3 396.2,188.1 397,188.1 397,188.9 397.7,188.9 397.7,187.3 397.7,122.8 
		397.7,120.4 399.9,120.4 413.6,120.4 	"/>
	<path id="XMLID_195_" class="st3" d="M454.2,106.4V130c-0.4,4.8-2.2,5.9-3.6,6.3h-31.1h-3.3c0-0.1-0.1-0.2-0.1-0.4
		c0.7,3.1,2.1,3.9,3.3,4.3h0.5h34.4c1.4-0.4,3.2-1.6,3.6-6.3v-23.6c0-14.2-2.7-23.2-8.1-26.6c0.5,0.9,1,1.9,1.5,2.9
		C453.2,91.3,454.2,97.9,454.2,106.4z"/>
	<path id="XMLID_194_" class="st3" d="M416.4,141.2C416.4,141.2,416.4,141.2,416.4,141.2C416.4,141.2,416.4,141.2,416.4,141.2z"/>
	<path id="XMLID_193_" class="st3" d="M457.8,169.4c0,0,0.1,0.1,0.1,0.1C457.9,169.5,457.9,169.5,457.8,169.4z"/>
	<path id="XMLID_192_" class="st3" d="M417.3,141.8c0,0-0.1,0-0.1-0.1C417.2,141.8,417.2,141.8,417.3,141.8z"/>
	<path id="XMLID_191_" class="st3" d="M360.7,226.6c0.1,0.1,0.1,0.1,0.2,0.2c0,0,0.1,0.1,0.1,0.1
		C360.9,226.8,360.8,226.7,360.7,226.6z"/>
	<path id="XMLID_190_" class="st3" d="M415.9,135c0-0.1,0-0.2,0-0.3C415.9,134.8,415.9,134.9,415.9,135z"/>
	<path id="XMLID_189_" class="st3" d="M459.5,172.7C459.5,172.7,459.5,172.7,459.5,172.7C459.5,172.7,459.5,172.7,459.5,172.7z"/>
	<path id="XMLID_188_" class="st3" d="M459.8,173.9c0-0.1,0-0.2,0-0.2C459.8,173.7,459.8,173.8,459.8,173.9z"/>
	<path id="XMLID_187_" class="st3" d="M460,175c0-0.1,0-0.2,0-0.3C460,174.8,460,174.9,460,175z"/>
	<path id="XMLID_186_" class="st3" d="M416.1,135.7c0-0.1,0-0.2-0.1-0.3C416,135.5,416,135.6,416.1,135.7z"/>
	<path id="XMLID_185_" class="st3" d="M448.9,83.1c0.3,0.2,0.6,0.3,0.9,0.5C449.5,83.5,449.2,83.3,448.9,83.1z"/>
	<path id="XMLID_184_" class="st3" d="M363.1,228.5c0.3,0.2,0.7,0.4,1,0.6C363.8,228.9,363.4,228.7,363.1,228.5z"/>
	<path id="XMLID_183_" class="st3" d="M364.3,229.2c0.4,0.2,0.9,0.4,1.3,0.5C365.2,229.6,364.7,229.4,364.3,229.2z"/>
	<path id="XMLID_182_" class="st3" d="M356.1,203c0-0.2,0-0.4,0-0.7C356.1,202.6,356.1,202.8,356.1,203z"/>
	<path id="XMLID_181_" class="st3" d="M356.2,205.6c0-0.1,0-0.2,0-0.3C356.2,205.4,356.2,205.5,356.2,205.6z"/>
	<path id="XMLID_180_" class="st3" d="M458.9,171c0,0,0-0.1,0-0.1C458.8,170.9,458.9,170.9,458.9,171z"/>
	<path id="XMLID_179_" class="st3" d="M358.9,219.5c-0.3-0.7-0.5-1.3-0.7-2.1C358.4,218.2,358.6,218.9,358.9,219.5z"/>
	<path id="XMLID_178_" class="st3" d="M458.4,170.2C458.4,170.1,458.4,170.1,458.4,170.2C458.4,170.1,458.4,170.1,458.4,170.2z"/>
	<path id="XMLID_177_" class="st3" d="M358.1,217.3c-0.1-0.3-0.2-0.7-0.3-1.1C357.9,216.5,358,216.9,358.1,217.3z"/>
	<path id="XMLID_176_" class="st3" d="M459.3,171.8c0-0.1-0.1-0.1-0.1-0.2C459.2,171.7,459.2,171.8,459.3,171.8z"/>
	<path id="XMLID_175_" class="st3" d="M357.1,213.1c-0.1-0.3-0.1-0.6-0.2-1C357,212.5,357,212.8,357.1,213.1z"/>
	<path id="XMLID_174_" class="st3" d="M356.4,208.4c0-0.3-0.1-0.5-0.1-0.8C356.4,207.8,356.4,208.1,356.4,208.4z"/>
	<path id="XMLID_173_" class="st3" d="M356.7,211c-0.1-0.3-0.1-0.7-0.1-1C356.6,210.3,356.7,210.7,356.7,211z"/>
	<path id="XMLID_172_" class="st3" d="M361.9,227.7c0.3,0.2,0.5,0.4,0.8,0.6C362.4,228.1,362.2,227.9,361.9,227.7z"/>
	<path id="XMLID_171_" class="st3" d="M357.7,215.7c-0.1-0.5-0.3-1.1-0.4-1.7C357.4,214.6,357.5,215.1,357.7,215.7z"/>
	<path id="XMLID_170_" class="st3" d="M456.7,88.8c0,0.1,0.1,0.2,0.1,0.3C456.8,89,456.7,88.9,456.7,88.8z"/>
	<path id="XMLID_169_" class="st3" d="M458.6,94.8c0.1,0.3,0.1,0.6,0.2,0.9C458.8,95.4,458.7,95.1,458.6,94.8z"/>
	<path id="XMLID_168_" class="st3" d="M459,96.8c0.1,0.4,0.1,0.8,0.2,1.2C459.2,97.6,459.1,97.2,459,96.8z"/>
	<path id="XMLID_167_" class="st3" d="M458.2,93.1c0,0.2,0.1,0.3,0.1,0.5C458.3,93.4,458.3,93.3,458.2,93.1z"/>
	<path id="XMLID_166_" class="st3" d="M457.3,90.3c0,0.1,0.1,0.2,0.1,0.2C457.4,90.5,457.3,90.4,457.3,90.3z"/>
	<path id="XMLID_165_" class="st3" d="M453.9,84.2C453.9,84.2,453.9,84.2,453.9,84.2L453.9,84.2z"/>
	<path id="XMLID_164_" class="st3" d="M418.2,142.3c0,0-0.1,0-0.1-0.1C418.1,142.3,418.2,142.3,418.2,142.3z"/>
	<path id="XMLID_163_" class="st3" d="M456.1,87.6C456.1,87.6,456.1,87.6,456.1,87.6C456.1,87.6,456.1,87.6,456.1,87.6z"/>
	<path id="XMLID_162_" class="st3" d="M454.2,173.8v22.1c0,15.8-3.4,25.1-10,27.6h-81.6h-0.4c-0.7-0.3-1.3-0.6-1.9-1
		c-0.5-0.9-1-1.8-1.5-2.9c1.7,4,4,6.6,7,7.8h81.9c6.6-2.5,10-11.8,10-27.6v-23.6c-0.4-4.8-2.2-5.9-3.6-6.3h-0.5
		c0.2,0.7,0.3,1.5,0.4,2.4V173.8z"/>
	<path id="XMLID_161_" class="st3" d="M460.1,107.5c0,0.9,0,1.9,0,2.8C460.1,109.3,460.1,108.4,460.1,107.5z"/>
	<path id="XMLID_160_" class="st3" d="M459.4,99c0.1,0.7,0.2,1.5,0.3,2.2C459.6,100.4,459.5,99.7,459.4,99z"/>
	<path id="XMLID_159_" class="st3" d="M460,104.7c0,0.6,0.1,1.2,0.1,1.9C460,106,460,105.3,460,104.7z"/>
	<path id="XMLID_158_" class="st3" d="M459.7,102c0.1,0.6,0.1,1.2,0.1,1.7C459.9,103.2,459.8,102.6,459.7,102z"/>
	<path id="XMLID_155_" class="st4" d="M417.3,141.8c0.3,0.2,0.5,0.3,0.8,0.4c0,0,0.1,0,0.1,0.1c0.3,0.1,0.6,0.2,0.9,0.3h35.4
		c3.3-0.8,5.2-3.6,5.5-8.6v-23.7c0-1,0-1.9,0-2.8c0-0.3,0-0.6,0-0.9c0-0.6-0.1-1.2-0.1-1.9c0-0.3,0-0.6-0.1-1c0-0.6-0.1-1.2-0.1-1.7
		c0-0.3,0-0.6-0.1-0.8c-0.1-0.8-0.2-1.5-0.3-2.2c0-0.3-0.1-0.7-0.2-1c-0.1-0.4-0.1-0.8-0.2-1.2c-0.1-0.4-0.1-0.8-0.2-1.1
		c-0.1-0.3-0.1-0.6-0.2-0.9c-0.1-0.4-0.2-0.8-0.3-1.2c0-0.2-0.1-0.3-0.1-0.5c-0.2-0.9-0.5-1.7-0.8-2.5c0-0.1-0.1-0.2-0.1-0.2
		c-0.2-0.4-0.3-0.8-0.5-1.2c0-0.1-0.1-0.2-0.1-0.3c-0.2-0.4-0.4-0.8-0.6-1.2c0,0,0,0,0,0c-0.7-1.3-1.4-2.4-2.2-3.3c0,0,0,0,0,0
		c0,0-0.1-0.1-0.1-0.1c-0.2-0.2-0.4-0.4-0.6-0.6c-0.1-0.1-0.1-0.1-0.2-0.1c-1.4-1.4-2.9-2.4-4.7-3h-82.7c-7.9,2.7-11.8,12.7-11.8,30
		v89.5c0,12.6,2.1,21.4,6.4,26.2c0.2,0.2,0.4,0.4,0.6,0.6c0.1,0.1,0.2,0.2,0.3,0.3c0.3,0.3,0.6,0.5,0.9,0.8c0.3,0.2,0.5,0.4,0.8,0.6
		c0.1,0.1,0.3,0.2,0.4,0.3c0.3,0.2,0.7,0.4,1,0.6c0.1,0,0.1,0.1,0.2,0.1c0.4,0.2,0.9,0.4,1.3,0.5h82.7c7.9-2.7,11.8-12.7,11.8-30
		v-23.7c0-0.4-0.1-0.7-0.1-1.1c0-0.1,0-0.2,0-0.3c0-0.3-0.1-0.5-0.1-0.8c0-0.1,0-0.2,0-0.2c-0.1-0.3-0.1-0.6-0.2-0.9
		c0,0,0-0.1,0-0.1c-0.1-0.3-0.2-0.5-0.3-0.8c0-0.1-0.1-0.1-0.1-0.2c-0.1-0.2-0.2-0.5-0.3-0.7c0,0,0-0.1,0-0.1
		c-0.1-0.3-0.3-0.5-0.4-0.7c0,0,0,0,0-0.1c-0.1-0.1-0.2-0.3-0.3-0.4c0,0-0.1-0.1-0.1-0.1c0,0-0.1-0.1-0.1-0.1
		c-0.2-0.2-0.3-0.3-0.5-0.5c0,0,0,0,0,0c0,0,0,0,0,0c-0.8-0.7-1.7-1.1-2.7-1.4h-35.4c-3.3,0.8-5.2,3.6-5.5,8.6v11.3h-10h-3.7v-3.9
		v-60.7h10h3.7v3.9v7.4c0.2,2.8,0.9,4.9,2.1,6.4c0,0,0.1,0.1,0.1,0.1c0,0,0.1,0.1,0.1,0.1c0.2,0.2,0.3,0.3,0.5,0.5c0,0,0,0,0,0
		c0,0,0,0,0,0c0.2,0.2,0.5,0.4,0.7,0.5C417.2,141.8,417.2,141.8,417.3,141.8z M399.9,120.4h-2.2v2.3v64.6v1.6v0.8h0.7h1.5h13.7h2.2
		v-2.3v-11.2c0.4-4.8,2.2-5.9,3.6-6.3h34.4h0.5c1.4,0.4,3.2,1.6,3.6,6.3v23.6c0,15.8-3.4,25.1-10,27.6H366c-3-1.2-5.4-3.8-7-7.8
		c0,0,0-0.1,0-0.1c-0.3-0.7-0.5-1.3-0.7-2.1c0-0.1,0-0.1-0.1-0.2c-0.1-0.3-0.2-0.7-0.3-1.1c0-0.2-0.1-0.3-0.1-0.5
		c-0.1-0.5-0.3-1.1-0.4-1.7c-0.1-0.3-0.1-0.6-0.2-0.8c-0.1-0.3-0.1-0.6-0.2-1c-0.1-0.4-0.1-0.8-0.2-1.2c0-0.3-0.1-0.7-0.1-1
		c-0.1-0.5-0.1-1-0.2-1.6c0-0.3-0.1-0.5-0.1-0.8c-0.1-0.6-0.1-1.3-0.1-1.9c0-0.1,0-0.2,0-0.3c0-0.7-0.1-1.5-0.1-2.3
		c0-0.2,0-0.4,0-0.7c0-0.8,0-1.7,0-2.5v-89.5c0-15.8,3.4-25.1,10-27.6h81.9c0.3,0.1,0.7,0.3,1,0.5c0.3,0.2,0.6,0.3,0.9,0.5
		c0,0,0,0,0,0c5.4,3.5,8.1,12.4,8.1,26.6v23.6c-0.4,4.8-2.2,5.9-3.6,6.3h-34.4h-0.5c-1.2-0.3-2.6-1.2-3.3-4.3c0-0.1,0-0.2-0.1-0.3
		c0-0.1,0-0.2-0.1-0.3c0-0.1,0-0.3-0.1-0.4c0-0.1,0-0.2,0-0.3c0-0.2-0.1-0.5-0.1-0.8v-11.2v-1.6v-0.8h-0.7h-1.5H399.9z"/>
</g>
<g id="XMLID_88_">
	<path id="XMLID_120_" class="st0" d="M249.8,247.2h85.1c5-0.4,7.9-2.3,8.7-5.8v-1.5v-1.5v-1.5v-1.5v-1.5v-1.5v-1.5V229v-1.5v-1.5
		v-15v-1.5v-1.5v-1.5v-1.5v-1.5v-1.5v-1.5v-1.5V197v-1.5c-0.8-3.5-3.7-5.4-8.7-5.8h-41.8v-82v-1.5v-1.5V103v-1.5v-1.5v-1.5v-1.5
		v-1.5v-1.5v-1.5c-0.4-4.9-2.4-7.7-5.9-8.5h-37.4c-3.5,0.8-5.5,3.6-5.9,8.5v1.5v1.5v1.5v1.5v1.5v1.5v1.5v1.5v1.5v1.5v115.6v1.5v1.5
		v1.5v1.5v1.5v1.5v1.5v1.5v1.5v1.5C244.3,243.6,246.3,246.4,249.8,247.2z M250.1,101.5H287c1.5,0.4,3.4,1.5,3.8,6.3v81.9v1.5v0.8
		v0.8v0.8v0.8v0.8v0.8v0.8v0.8v0.8v0.8v0.8v0.8v0.8v0.8v0.8v0.8v0.8v0.8v0.8v1.5h2.4h41.7c4.8,0.4,6,2.3,6.4,3.7v14.4
		c-0.4,1.5-1.6,3.3-6.4,3.7h-84.7c-1.5-0.4-3.4-1.5-3.8-6.3V107.7C246.7,103,248.6,101.9,250.1,101.5z"/>
	<linearGradient id="XMLID_71_" gradientUnits="userSpaceOnUse" x1="293.747" y1="231.6938" x2="293.747" y2="83.6823">
		<stop  offset="0" style="stop-color:#C85743"/>
		<stop  offset="7.280982e-002" style="stop-color:#CE6E43"/>
		<stop  offset="0.1796" style="stop-color:#D58441"/>
		<stop  offset="0.2953" style="stop-color:#DB963D"/>
		<stop  offset="0.4212" style="stop-color:#E0A539"/>
		<stop  offset="0.5623" style="stop-color:#E4B035"/>
		<stop  offset="0.731" style="stop-color:#E6B631"/>
		<stop  offset="1" style="stop-color:#E7B830"/>
	</linearGradient>
	<path id="XMLID_118_" class="st6" d="M243.9,223.2V92.2c0.4-4.9,2.4-7.7,5.9-8.5h37.4c3.5,0.8,5.5,3.6,5.9,8.5v97.5h41.8
		c5,0.4,7.9,2.3,8.7,5.8v30.5c-0.8,3.5-3.7,5.4-8.7,5.8h-85.1C246.3,230.9,244.3,228.1,243.9,223.2z"/>
	<path id="XMLID_117_" class="st2" d="M246.4,229.8c0,0-0.1-0.1-0.1-0.1C246.3,229.7,246.3,229.8,246.4,229.8z"/>
	<path id="XMLID_116_" class="st2" d="M291.6,192v0.8h0.8v0.8h0.8v0.8h0.8v0.8h0.8v0.8h2.4h40.1v-3.5h0c-0.1,0-0.2-0.1-0.4-0.1
		c-0.1,0-0.2,0-0.3-0.1c-0.1,0-0.2,0-0.3-0.1c-0.1,0-0.3,0-0.4-0.1c-0.1,0-0.2,0-0.3,0c-0.2,0-0.5-0.1-0.8-0.1h-41.7H291.6z"/>
	<path id="XMLID_115_" class="st2" d="M250.2,96.1c0.4-4.7,2.3-5.9,3.8-6.3h32.8v-1.5c-0.1-0.9-0.2-1.7-0.4-2.4h-36.3
		c-1.5,0.4-3.4,1.5-3.8,6.3v130.9c0,0.3,0.1,0.5,0.1,0.8c0,0.1,0,0.2,0,0.3c0,0.1,0,0.3,0.1,0.4c0,0.1,0,0.2,0.1,0.3
		c0,0.1,0,0.2,0.1,0.3c0,0.1,0.1,0.2,0.1,0.4c0,0,0,0,0,0h3.6V96.1z"/>
	<path id="XMLID_114_" class="st2" d="M341.5,192c0,0,0.1,0.1,0.1,0.1C341.6,192,341.6,192,341.5,192z"/>
	<path id="XMLID_113_" class="st2" d="M290.2,85.1C290.2,85.1,290.2,85.1,290.2,85.1C290.2,85.1,290.2,85.1,290.2,85.1z"/>
	<path id="XMLID_112_" class="st3" d="M337.2,221.8c-0.4,1.5-1.6,3.3-6.4,3.7h-80.6h-3.6c0.7,2.7,2.2,3.6,3.4,3.9h0.5h84.2
		c4.8-0.4,6-2.3,6.4-3.7v-29.4v-0.5c-0.3-1.2-1.1-2.6-4-3.3v3.5V221.8z"/>
	<path id="XMLID_111_" class="st3" d="M342.1,192.6C342.1,192.6,342.1,192.6,342.1,192.6C342.1,192.6,342.1,192.6,342.1,192.6z"/>
	<path id="XMLID_110_" class="st3" d="M290.7,85.6c0,0,0.1,0.1,0.1,0.1C290.8,85.7,290.8,85.6,290.7,85.6z"/>
	<path id="XMLID_109_" class="st3" d="M246.9,230.3C246.9,230.3,246.9,230.3,246.9,230.3C246.9,230.3,246.9,230.3,246.9,230.3z"/>
	<path id="XMLID_108_" class="st3" d="M291.3,86.3C291.3,86.3,291.3,86.3,291.3,86.3C291.3,86.3,291.3,86.3,291.3,86.3z"/>
	<path id="XMLID_107_" class="st3" d="M246.7,225.5c0-0.1-0.1-0.2-0.1-0.4C246.6,225.3,246.7,225.4,246.7,225.5z"/>
	<path id="XMLID_106_" class="st3" d="M336.9,192.3c0.1,0,0.2,0.1,0.4,0.1C337.1,192.4,337,192.3,336.9,192.3z"/>
	<path id="XMLID_105_" class="st3" d="M336.3,192.2c0.1,0,0.2,0,0.3,0.1C336.5,192.2,336.4,192.2,336.3,192.2z"/>
	<path id="XMLID_104_" class="st3" d="M335.6,192.1c0.1,0,0.2,0,0.3,0C335.8,192.1,335.7,192.1,335.6,192.1z"/>
	<path id="XMLID_103_" class="st3" d="M291.8,87.1c0,0,0-0.1-0.1-0.1C291.8,87.1,291.8,87.1,291.8,87.1z"/>
	<path id="XMLID_102_" class="st3" d="M292.8,90c0-0.1,0-0.2-0.1-0.2C292.8,89.9,292.8,89.9,292.8,90z"/>
	<path id="XMLID_101_" class="st3" d="M293,91.1c0-0.1,0-0.2,0-0.3C293,90.9,293,91,293,91.1z"/>
	<path id="XMLID_100_" class="st3" d="M292.6,88.8C292.5,88.8,292.5,88.8,292.6,88.8C292.5,88.8,292.5,88.8,292.6,88.8z"/>
	<path id="XMLID_99_" class="st3" d="M343.3,194.5c0,0,0-0.1-0.1-0.1C343.2,194.4,343.3,194.4,343.3,194.5z"/>
	<path id="XMLID_98_" class="st3" d="M247.7,230.9c0,0,0.1,0,0.1,0.1C247.8,230.9,247.7,230.9,247.7,230.9z"/>
	<path id="XMLID_97_" class="st3" d="M292.2,88c0-0.1-0.1-0.1-0.1-0.2C292.2,87.9,292.2,87.9,292.2,88z"/>
	<path id="XMLID_96_" class="st3" d="M248.7,231.4c0,0,0.1,0,0.1,0C248.8,231.4,248.7,231.4,248.7,231.4z"/>
	<path id="XMLID_95_" class="st3" d="M342.8,193.5c0,0,0-0.1-0.1-0.1C342.8,193.4,342.8,193.5,342.8,193.5z"/>
	<path id="XMLID_94_" class="st3" d="M246.4,224.2c0-0.1,0-0.2,0-0.3C246.4,224,246.4,224.1,246.4,224.2z"/>
	<path id="XMLID_93_" class="st3" d="M246.5,224.9c0-0.1,0-0.2-0.1-0.3C246.5,224.7,246.5,224.8,246.5,224.9z"/>
	<path id="XMLID_92_" class="st3" d="M286.8,89.9v95.9v2.3h0.8v0.8h0.8v0.8h0.8v0.8h0.8v0.8h0.8v-1.5V92.3c-0.4-4.7-2.3-5.9-3.8-6.3
		h-0.5c0.2,0.7,0.3,1.5,0.4,2.4V89.9z"/>
	<path id="XMLID_89_" class="st4" d="M287.2,83.7h-37.4c-3.5,0.8-5.5,3.6-5.9,8.5v131.1c0.2,2.8,1,4.9,2.2,6.3c0,0,0.1,0.1,0.1,0.1
		c0,0,0.1,0.1,0.1,0.1c0.2,0.2,0.3,0.3,0.5,0.5c0,0,0,0,0,0c0,0,0,0,0,0c0.2,0.2,0.5,0.4,0.8,0.5c0,0,0.1,0,0.1,0.1
		c0.3,0.2,0.6,0.3,0.9,0.4c0,0,0.1,0,0.1,0c0.3,0.1,0.6,0.2,1,0.3h85.1c5-0.4,7.9-2.3,8.7-5.8v-30.5c-0.1-0.3-0.2-0.7-0.3-1
		c0,0,0-0.1-0.1-0.1c-0.1-0.3-0.3-0.6-0.4-0.9c0,0,0-0.1-0.1-0.1c-0.2-0.3-0.3-0.5-0.6-0.8c0,0,0,0,0,0c0,0,0,0,0,0
		c-0.2-0.2-0.3-0.3-0.5-0.5c0,0-0.1-0.1-0.1-0.1c0,0-0.1-0.1-0.1-0.1c-1.5-1.2-3.6-1.9-6.5-2.2h-37.8h-4v-3.9V92.2
		c0-0.4-0.1-0.7-0.1-1.1c0-0.1,0-0.2,0-0.3c0-0.3-0.1-0.5-0.1-0.8c0-0.1,0-0.2-0.1-0.2c-0.1-0.3-0.2-0.6-0.2-0.9c0,0,0-0.1,0-0.1
		c-0.1-0.3-0.2-0.5-0.3-0.8c0-0.1-0.1-0.1-0.1-0.2c-0.1-0.2-0.2-0.5-0.3-0.7c0,0,0-0.1-0.1-0.1c-0.1-0.3-0.3-0.5-0.5-0.7
		c0,0,0,0,0-0.1c-0.1-0.1-0.2-0.3-0.3-0.4c0,0-0.1-0.1-0.1-0.1c0,0-0.1-0.1-0.1-0.1c-0.2-0.2-0.3-0.3-0.5-0.5c0,0,0,0,0,0
		c0,0,0,0,0,0C289.3,84.4,288.4,83.9,287.2,83.7z M334.8,192c0.3,0,0.5,0.1,0.8,0.1c0.1,0,0.2,0,0.3,0c0.1,0,0.3,0,0.4,0.1
		c0.1,0,0.2,0,0.3,0.1c0.1,0,0.2,0,0.3,0.1c0.1,0,0.2,0.1,0.4,0.1h0c2.8,0.7,3.6,2.2,4,3.3v0.5v29.4c-0.4,1.5-1.6,3.3-6.4,3.7h-84.2
		h-0.5c-1.2-0.3-2.7-1.1-3.4-3.9c0,0,0,0,0,0c0-0.1-0.1-0.2-0.1-0.4c0-0.1,0-0.2-0.1-0.3c0-0.1,0-0.2-0.1-0.3c0-0.1,0-0.3-0.1-0.4
		c0-0.1,0-0.2,0-0.3c0-0.2-0.1-0.5-0.1-0.8V92.3c0.4-4.7,2.3-5.9,3.8-6.3h36.3h0.5c1.5,0.4,3.4,1.5,3.8,6.3v97.4v1.5v0.8h0.8h1.6
		H334.8z"/>
</g>
<g id="XMLID_251_">
	<g id="XMLID_443_" class="st7">
		<path id="XMLID_472_" class="st8" d="M117.9,303.6c0,0,0-0.1,0-0.1c0-6.3-7.7-11.9-19.3-15.1c4.9,1.4,8.9,3.2,11.9,5.2
			c-0.3-0.2-0.7-0.4-1.1-0.6c-0.4-0.2-0.8-0.5-1.3-0.7c-1.1-0.6-2.2-1.1-3.5-1.6c-1-0.4-2-0.8-3.1-1.1c-3.2-1.1-6.8-1.9-10.7-2.6
			c-0.3-0.1-0.6-0.1-1-0.2c-0.7-0.1-1.3-0.2-2-0.3c-0.3,0-0.7-0.1-1-0.1c-3.7-0.4-7.6-0.7-11.7-0.7h0c-2.9,0-5.8,0.1-8.6,0.4
			c-0.7,0.1-1.4,0.1-2.1,0.2c-3.4,0.4-6.6,0.9-9.7,1.6c-0.3,0.1-0.6,0.1-0.9,0.2c-5.6,1.4-10.4,3.2-14,5.5c2.9-2.1,7-3.9,11.9-5.2
			c-11.6,3.2-19.3,8.8-19.3,15.1c0,0,0,0.1,0,0.1c0,0.1,0,0.1,0,0.2v6.5c0,9.9,19.1,18,42.6,18c23.5,0,42.6-8.1,42.6-18v-6.5
			C117.9,303.7,117.9,303.7,117.9,303.6z"/>
		<path id="XMLID_471_" class="st9" d="M75.3,285.8c-23.5,0-42.6,8.1-42.6,18v6.5c0,9.9,19.1,18,42.6,18c23.5,0,42.6-8.1,42.6-18
			v-6.5C117.9,293.8,98.9,285.8,75.3,285.8z"/>
		<ellipse id="XMLID_470_" class="st9" cx="75.3" cy="303.8" rx="42.6" ry="18"/>
		<path id="XMLID_469_" class="st9" d="M117.9,303.5c0,9.9-19.1,18-42.6,18s-42.6-8.1-42.6-18c0-6.3,7.7-11.9,19.3-15.1
			c-10.3,2.9-17,7.6-17,13c0,8.8,18.1,16,40.3,16s40.3-7.1,40.3-16c0-5.4-6.7-10.1-17-13C110.3,291.6,117.9,297.2,117.9,303.5z"/>
		<path id="XMLID_466_" class="st9" d="M75.3,289.4c-13.5,0-24.4,4.6-24.4,10.3v3.8c0,5.7,10.9,10.3,24.4,10.3s24.4-4.6,24.4-10.3
			v-3.8C99.8,294,88.8,289.4,75.3,289.4z"/>
		<ellipse id="XMLID_465_" class="st9" cx="75.3" cy="299.7" rx="24.4" ry="10.3"/>
		<ellipse id="XMLID_464_" class="st9" cx="75.7" cy="299.5" rx="17.1" ry="6.8"/>
		<path id="XMLID_463_" class="st9" d="M62.6,300.3c-2.8,3.2-2.8,3.8,0,6.9c-3.6-2.4-4.3-2.4-7.9,0c2.8-3.2,2.8-3.8,0-6.9
			C58.3,302.8,59,302.8,62.6,300.3z"/>
	</g>
	<g id="XMLID_373_">
		<g id="XMLID_407_">
			<g id="XMLID_409_">
				<path id="XMLID_427_" class="st10" d="M106.9,293.6c0,0,0-0.1,0-0.1c0-6.3-7.7-11.9-19.3-15.1c4.9,1.4,8.9,3.2,11.9,5.2
					c-0.3-0.2-0.7-0.4-1.1-0.6c-0.4-0.2-0.8-0.5-1.3-0.7c-1.1-0.6-2.2-1.1-3.5-1.6c-1-0.4-2-0.8-3.1-1.1c-3.2-1.1-6.8-1.9-10.7-2.6
					c-0.3-0.1-0.6-0.1-1-0.2c-0.7-0.1-1.3-0.2-2-0.3c-0.3,0-0.7-0.1-1-0.1c-3.7-0.4-7.6-0.7-11.7-0.7h0c-2.9,0-5.8,0.1-8.6,0.4
					c-0.7,0.1-1.4,0.1-2.1,0.2c-3.4,0.4-6.6,0.9-9.7,1.6c-0.3,0.1-0.6,0.1-0.9,0.2c-5.6,1.4-10.4,3.2-14,5.5c2.9-2.1,7-3.9,11.9-5.2
					c-11.6,3.2-19.3,8.8-19.3,15.1c0,0,0,0.1,0,0.1c0,0.1,0,0.1,0,0.2v6.5c0,9.9,19.1,18,42.6,18c23.5,0,42.6-8.1,42.6-18v-6.5
					C106.9,293.7,106.9,293.7,106.9,293.6z"/>
				<g id="XMLID_410_">
					<path id="XMLID_426_" class="st11" d="M64.3,275.8c-23.5,0-42.6,8.1-42.6,18v6.5c0,9.9,19.1,18,42.6,18
						c23.5,0,42.6-8.1,42.6-18v-6.5C106.9,283.8,87.9,275.8,64.3,275.8z"/>
					<ellipse id="XMLID_425_" class="st12" cx="64.3" cy="293.8" rx="42.6" ry="18"/>
					<path id="XMLID_424_" class="st13" d="M106.9,293.5c0,9.9-19.1,18-42.6,18s-42.6-8.1-42.6-18c0-6.3,7.7-11.9,19.3-15.1
						c-10.3,2.9-17,7.6-17,13c0,8.8,18.1,16,40.3,16s40.3-7.1,40.3-16c0-5.4-6.7-10.1-17-13C99.3,281.6,106.9,287.2,106.9,293.5z"/>
					<g id="XMLID_419_">
						<g id="XMLID_421_">
							<path id="XMLID_423_" class="st14" d="M64.3,279.4c-13.5,0-24.4,4.6-24.4,10.3v3.8c0,5.7,10.9,10.3,24.4,10.3
								s24.4-4.6,24.4-10.3v-3.8C88.8,284,77.8,279.4,64.3,279.4z"/>
							<ellipse id="XMLID_422_" class="st15" cx="64.3" cy="289.7" rx="24.4" ry="10.3"/>
						</g>
						<ellipse id="XMLID_420_" class="st16" cx="64.7" cy="289.5" rx="17.1" ry="6.8"/>
					</g>
				</g>
			</g>
			<path id="XMLID_408_" class="st2" d="M51.6,290.3c-2.8,3.2-2.8,3.8,0,6.9c-3.6-2.4-4.3-2.4-7.9,0c2.8-3.2,2.8-3.8,0-6.9
				C47.3,292.8,48,292.8,51.6,290.3z"/>
		</g>
	</g>
</g>
<g id="XMLID_252_">
	<g id="XMLID_442_" class="st7">
		<path id="XMLID_481_" class="st8" d="M258.1,304.3c0,0,0-0.1,0-0.1c0-6.3-7.7-11.9-19.3-15.1c4.9,1.4,8.9,3.2,11.9,5.2
			c-0.3-0.2-0.7-0.4-1.1-0.6c-0.4-0.2-0.8-0.5-1.3-0.7c-1.1-0.6-2.2-1.1-3.5-1.6c-1-0.4-2-0.8-3.1-1.1c-3.2-1.1-6.8-1.9-10.7-2.6
			c-0.3-0.1-0.6-0.1-1-0.2c-0.7-0.1-1.3-0.2-2-0.3c-0.3,0-0.7-0.1-1-0.1c-3.7-0.4-7.6-0.7-11.7-0.7h0c-2.9,0-5.8,0.1-8.6,0.4
			c-0.7,0.1-1.4,0.1-2.1,0.2c-3.4,0.4-6.6,0.9-9.7,1.6c-0.3,0.1-0.6,0.1-0.9,0.2c-5.6,1.4-10.4,3.2-14,5.5c2.9-2.1,7-3.9,11.9-5.2
			c-11.6,3.2-19.3,8.8-19.3,15.1c0,0,0,0.1,0,0.1c0,0.1,0,0.1,0,0.2v6.5c0,9.9,19.1,18,42.6,18c23.5,0,42.6-8.1,42.6-18v-6.5
			C258.1,304.4,258.1,304.3,258.1,304.3z"/>
		<path id="XMLID_480_" class="st9" d="M215.5,286.4c-23.5,0-42.6,8.1-42.6,18v6.5c0,9.9,19.1,18,42.6,18c23.5,0,42.6-8.1,42.6-18
			v-6.5C258.1,294.5,239,286.4,215.5,286.4z"/>
		<ellipse id="XMLID_479_" class="st9" cx="215.5" cy="304.4" rx="42.6" ry="18"/>
		<path id="XMLID_478_" class="st9" d="M258.1,304.1c0,9.9-19.1,18-42.6,18c-23.5,0-42.6-8.1-42.6-18c0-6.3,7.7-11.9,19.3-15.1
			c-10.3,2.9-17,7.6-17,13c0,8.8,18.1,16,40.3,16s40.3-7.1,40.3-16c0-5.4-6.7-10.1-17-13C250.5,292.3,258.1,297.8,258.1,304.1z"/>
		<path id="XMLID_477_" class="st9" d="M215.5,290c-13.5,0-24.4,4.6-24.4,10.3v3.8c0,5.7,10.9,10.3,24.4,10.3
			c13.5,0,24.4-4.6,24.4-10.3v-3.8C239.9,294.6,229,290,215.5,290z"/>
		<ellipse id="XMLID_476_" class="st9" cx="215.5" cy="300.3" rx="24.4" ry="10.3"/>
		<ellipse id="XMLID_475_" class="st9" cx="216" cy="300.2" rx="17.1" ry="6.8"/>
		<path id="XMLID_474_" class="st9" d="M198.6,301c-2.8,3.2-2.8,3.8,0,6.9c-3.6-2.4-4.3-2.4-7.9,0c2.8-3.2,2.8-3.8,0-6.9
			C194.3,303.4,194.9,303.4,198.6,301z"/>
	</g>
	<g id="XMLID_374_">
		<g id="XMLID_389_">
			<g id="XMLID_391_">
				<path id="XMLID_404_" class="st10" d="M247.1,294.3c0,0,0-0.1,0-0.1c0-6.3-7.7-11.9-19.3-15.1c4.9,1.4,8.9,3.2,11.9,5.2
					c-0.3-0.2-0.7-0.4-1.1-0.6c-0.4-0.2-0.8-0.5-1.3-0.7c-1.1-0.6-2.2-1.1-3.5-1.6c-1-0.4-2-0.8-3.1-1.1c-3.2-1.1-6.8-1.9-10.7-2.6
					c-0.3-0.1-0.6-0.1-1-0.2c-0.7-0.1-1.3-0.2-2-0.3c-0.3,0-0.7-0.1-1-0.1c-3.7-0.4-7.6-0.7-11.7-0.7h0c-2.9,0-5.8,0.1-8.6,0.4
					c-0.7,0.1-1.4,0.1-2.1,0.2c-3.4,0.4-6.6,0.9-9.7,1.6c-0.3,0.1-0.6,0.1-0.9,0.2c-5.6,1.4-10.4,3.2-14,5.5c2.9-2.1,7-3.9,11.9-5.2
					c-11.6,3.2-19.3,8.8-19.3,15.1c0,0,0,0.1,0,0.1c0,0.1,0,0.1,0,0.2v6.5c0,9.9,19.1,18,42.6,18c23.5,0,42.6-8.1,42.6-18v-6.5
					C247.1,294.4,247.1,294.3,247.1,294.3z"/>
				<g id="XMLID_392_">
					<path id="XMLID_403_" class="st11" d="M204.5,276.4c-23.5,0-42.6,8.1-42.6,18v6.5c0,9.9,19.1,18,42.6,18
						c23.5,0,42.6-8.1,42.6-18v-6.5C247.1,284.5,228,276.4,204.5,276.4z"/>
					<ellipse id="XMLID_401_" class="st12" cx="204.5" cy="294.4" rx="42.6" ry="18"/>
					<path id="XMLID_400_" class="st13" d="M247.1,294.1c0,9.9-19.1,18-42.6,18c-23.5,0-42.6-8.1-42.6-18c0-6.3,7.7-11.9,19.3-15.1
						c-10.3,2.9-17,7.6-17,13c0,8.8,18.1,16,40.3,16s40.3-7.1,40.3-16c0-5.4-6.7-10.1-17-13C239.5,282.3,247.1,287.8,247.1,294.1z"
						/>
					<g id="XMLID_395_">
						<g id="XMLID_397_">
							<path id="XMLID_399_" class="st17" d="M204.5,280c-13.5,0-24.4,4.6-24.4,10.3v3.8c0,5.7,10.9,10.3,24.4,10.3
								c13.5,0,24.4-4.6,24.4-10.3v-3.8C228.9,284.6,218,280,204.5,280z"/>
							<ellipse id="XMLID_398_" class="st18" cx="204.5" cy="290.3" rx="24.4" ry="10.3"/>
						</g>
						<ellipse id="XMLID_396_" class="st17" cx="205" cy="290.2" rx="17.1" ry="6.8"/>
					</g>
				</g>
			</g>
			<path id="XMLID_390_" class="st2" d="M187.6,291c-2.8,3.2-2.8,3.8,0,6.9c-3.6-2.4-4.3-2.4-7.9,0c2.8-3.2,2.8-3.8,0-6.9
				C183.3,293.4,183.9,293.4,187.6,291z"/>
		</g>
	</g>
</g>
<g id="XMLID_253_">
	<g id="XMLID_473_" class="st7">
		<path id="XMLID_490_" class="st8" d="M404.6,304.3c0,0,0-0.1,0-0.1c0-6.3-7.7-11.9-19.3-15.1c4.9,1.4,8.9,3.2,11.9,5.2
			c-0.3-0.2-0.7-0.4-1.1-0.6c-0.4-0.2-0.8-0.5-1.3-0.7c-1.1-0.6-2.2-1.1-3.5-1.6c-1-0.4-2-0.8-3.1-1.1c-3.2-1.1-6.8-1.9-10.7-2.6
			c-0.3-0.1-0.6-0.1-1-0.2c-0.7-0.1-1.3-0.2-2-0.3c-0.3,0-0.7-0.1-1-0.1c-3.7-0.4-7.6-0.7-11.7-0.7h0c-2.9,0-5.8,0.1-8.6,0.4
			c-0.7,0.1-1.4,0.1-2.1,0.2c-3.4,0.4-6.6,0.9-9.7,1.6c-0.3,0.1-0.6,0.1-0.9,0.2c-5.6,1.4-10.4,3.2-14,5.5c2.9-2.1,7-3.9,11.9-5.2
			c-11.6,3.2-19.3,8.8-19.3,15.1c0,0,0,0.1,0,0.1c0,0.1,0,0.1,0,0.2v6.5c0,9.9,19.1,18,42.6,18c23.5,0,42.6-8.1,42.6-18v-6.5
			C404.6,304.4,404.6,304.3,404.6,304.3z"/>
		<path id="XMLID_489_" class="st9" d="M362,286.4c-23.5,0-42.6,8.1-42.6,18v6.5c0,9.9,19.1,18,42.6,18c23.5,0,42.6-8.1,42.6-18
			v-6.5C404.6,294.5,385.6,286.4,362,286.4z"/>
		<ellipse id="XMLID_488_" class="st9" cx="362" cy="304.4" rx="42.6" ry="18"/>
		<path id="XMLID_487_" class="st9" d="M404.6,304.1c0,9.9-19.1,18-42.6,18s-42.6-8.1-42.6-18c0-6.3,7.7-11.9,19.3-15.1
			c-10.3,2.9-17,7.6-17,13c0,8.8,18.1,16,40.3,16c22.3,0,40.3-7.1,40.3-16c0-5.4-6.7-10.1-17-13C397,292.3,404.6,297.8,404.6,304.1z
			"/>
		<path id="XMLID_486_" class="st9" d="M362,290c-13.5,0-24.4,4.6-24.4,10.3v3.8c0,5.7,10.9,10.3,24.4,10.3
			c13.5,0,24.4-4.6,24.4-10.3v-3.8C386.5,294.6,375.5,290,362,290z"/>
		<ellipse id="XMLID_485_" class="st9" cx="362" cy="300.3" rx="24.4" ry="10.3"/>
		<ellipse id="XMLID_484_" class="st9" cx="362.4" cy="300.1" rx="17.1" ry="6.8"/>
		<path id="XMLID_483_" class="st9" d="M347,301c-2.8,3.2-2.8,3.8,0,6.9c-3.6-2.4-4.3-2.4-7.9,0c2.8-3.2,2.8-3.8,0-6.9
			C342.7,303.4,343.4,303.4,347,301z"/>
	</g>
	<g id="XMLID_375_">
		<g id="XMLID_394_">
			<g id="XMLID_405_">
				<path id="XMLID_429_" class="st10" d="M393.6,294.3c0,0,0-0.1,0-0.1c0-6.3-7.7-11.9-19.3-15.1c4.9,1.4,8.9,3.2,11.9,5.2
					c-0.3-0.2-0.7-0.4-1.1-0.6c-0.4-0.2-0.8-0.5-1.3-0.7c-1.1-0.6-2.2-1.1-3.5-1.6c-1-0.4-2-0.8-3.1-1.1c-3.2-1.1-6.8-1.9-10.7-2.6
					c-0.3-0.1-0.6-0.1-1-0.2c-0.7-0.1-1.3-0.2-2-0.3c-0.3,0-0.7-0.1-1-0.1c-3.7-0.4-7.6-0.7-11.7-0.7h0c-2.9,0-5.8,0.1-8.6,0.4
					c-0.7,0.1-1.4,0.1-2.1,0.2c-3.4,0.4-6.6,0.9-9.7,1.6c-0.3,0.1-0.6,0.1-0.9,0.2c-5.6,1.4-10.4,3.2-14,5.5c2.9-2.1,7-3.9,11.9-5.2
					c-11.6,3.2-19.3,8.8-19.3,15.1c0,0,0,0.1,0,0.1c0,0.1,0,0.1,0,0.2v6.5c0,9.9,19.1,18,42.6,18c23.5,0,42.6-8.1,42.6-18v-6.5
					C393.6,294.4,393.6,294.3,393.6,294.3z"/>
				<g id="XMLID_406_">
					<path id="XMLID_418_" class="st11" d="M351,276.4c-23.5,0-42.6,8.1-42.6,18v6.5c0,9.9,19.1,18,42.6,18c23.5,0,42.6-8.1,42.6-18
						v-6.5C393.6,284.5,374.6,276.4,351,276.4z"/>
					<ellipse id="XMLID_417_" class="st12" cx="351" cy="294.4" rx="42.6" ry="18"/>
					<path id="XMLID_416_" class="st13" d="M393.6,294.1c0,9.9-19.1,18-42.6,18s-42.6-8.1-42.6-18c0-6.3,7.7-11.9,19.3-15.1
						c-10.3,2.9-17,7.6-17,13c0,8.8,18.1,16,40.3,16c22.3,0,40.3-7.1,40.3-16c0-5.4-6.7-10.1-17-13
						C386,282.3,393.6,287.8,393.6,294.1z"/>
					<g id="XMLID_411_">
						<g id="XMLID_413_">
							<path id="XMLID_415_" class="st19" d="M351,280c-13.5,0-24.4,4.6-24.4,10.3v3.8c0,5.7,10.9,10.3,24.4,10.3
								c13.5,0,24.4-4.6,24.4-10.3v-3.8C375.5,284.6,364.5,280,351,280z"/>
							<ellipse id="XMLID_414_" class="st20" cx="351" cy="290.3" rx="24.4" ry="10.3"/>
						</g>
						<ellipse id="XMLID_412_" class="st19" cx="351.4" cy="290.1" rx="17.1" ry="6.8"/>
					</g>
				</g>
			</g>
			<path id="XMLID_402_" class="st2" d="M336,291c-2.8,3.2-2.8,3.8,0,6.9c-3.6-2.4-4.3-2.4-7.9,0c2.8-3.2,2.8-3.8,0-6.9
				C331.7,293.4,332.4,293.4,336,291z"/>
		</g>
	</g>
</g>
<g id="XMLID_254_">
	<g id="XMLID_482_" class="st7">
		<path id="XMLID_498_" class="st8" d="M562.8,305.4c0,0,0-0.1,0-0.1c0-6.3-7.7-11.9-19.3-15.1c4.9,1.4,8.9,3.2,11.9,5.2
			c-0.3-0.2-0.7-0.4-1.1-0.6c-0.4-0.2-0.8-0.5-1.3-0.7c-1.1-0.6-2.2-1.1-3.5-1.6c-1-0.4-2-0.8-3.1-1.1c-3.2-1.1-6.8-1.9-10.7-2.6
			c-0.3-0.1-0.6-0.1-1-0.2c-0.7-0.1-1.3-0.2-2-0.3c-0.3,0-0.7-0.1-1-0.1c-3.7-0.4-7.6-0.7-11.7-0.7l0,0c-2.9,0-5.8,0.1-8.6,0.4
			c-0.7,0.1-1.4,0.1-2.1,0.2c-3.4,0.4-6.6,0.9-9.7,1.6c-0.3,0.1-0.6,0.1-0.9,0.2c-5.6,1.4-10.4,3.2-14,5.5c2.9-2.1,7-3.9,11.9-5.2
			c-11.6,3.2-19.3,8.8-19.3,15.1c0,0,0,0.1,0,0.1c0,0.1,0,0.1,0,0.2v6.5c0,9.9,19.1,18,42.6,18c23.5,0,42.6-8.1,42.6-18v-6.5
			C562.8,305.5,562.8,305.5,562.8,305.4z"/>
		<path id="XMLID_497_" class="st9" d="M520.2,287.6c-23.5,0-42.6,8.1-42.6,18v6.5c0,9.9,19.1,18,42.6,18c23.5,0,42.6-8.1,42.6-18
			v-6.5C562.8,295.6,543.7,287.6,520.2,287.6z"/>
		<ellipse id="XMLID_496_" class="st9" cx="520.2" cy="305.6" rx="42.6" ry="18"/>
		<path id="XMLID_495_" class="st9" d="M562.8,305.3c0,9.9-19.1,18-42.6,18c-23.5,0-42.6-8.1-42.6-18c0-6.3,7.7-11.9,19.3-15.1
			c-10.3,2.9-17,7.6-17,13c0,8.8,18.1,16,40.3,16s40.3-7.1,40.3-16c0-5.4-6.7-10.1-17-13C555.1,293.4,562.8,299,562.8,305.3z"/>
		<path id="XMLID_494_" class="st9" d="M520.2,291.1c-13.5,0-24.4,4.6-24.4,10.3v3.8c0,5.7,10.9,10.3,24.4,10.3
			c13.5,0,24.4-4.6,24.4-10.3v-3.8C544.6,295.8,533.7,291.1,520.2,291.1z"/>
		<ellipse id="XMLID_493_" class="st9" cx="520.2" cy="301.5" rx="24.4" ry="10.3"/>
		<ellipse id="XMLID_492_" class="st9" cx="520.5" cy="301.2" rx="17.1" ry="6.8"/>
		<path id="XMLID_491_" class="st9" d="M503.7,302.1c-2.8,3.2-2.8,3.8,0,6.9c-3.6-2.4-4.3-2.4-7.9,0c2.8-3.2,2.8-3.8,0-6.9
			C499.4,304.5,500.1,304.5,503.7,302.1z"/>
	</g>
	<g id="XMLID_393_">
		<g id="XMLID_447_">
			<g id="XMLID_449_">
				<path id="XMLID_468_" class="st10" d="M551.8,295.4c0,0,0-0.1,0-0.1c0-6.3-7.7-11.9-19.3-15.1c4.9,1.4,8.9,3.2,11.9,5.2
					c-0.3-0.2-0.7-0.4-1.1-0.6c-0.4-0.2-0.8-0.5-1.3-0.7c-1.1-0.6-2.2-1.1-3.5-1.6c-1-0.4-2-0.8-3.1-1.1c-3.2-1.1-6.8-1.9-10.7-2.6
					c-0.3-0.1-0.6-0.1-1-0.2c-0.7-0.1-1.3-0.2-2-0.3c-0.3,0-0.7-0.1-1-0.1c-3.7-0.4-7.6-0.7-11.7-0.7h0c-2.9,0-5.8,0.1-8.6,0.4
					c-0.7,0.1-1.4,0.1-2.1,0.2c-3.4,0.4-6.6,0.9-9.7,1.6c-0.3,0.1-0.6,0.1-0.9,0.2c-5.6,1.4-10.4,3.2-14,5.5c2.9-2.1,7-3.9,11.9-5.2
					c-11.6,3.2-19.3,8.8-19.3,15.1c0,0,0,0.1,0,0.1c0,0.1,0,0.1,0,0.2v6.5c0,9.9,19.1,18,42.6,18c23.5,0,42.6-8.1,42.6-18v-6.5
					C551.8,295.5,551.8,295.5,551.8,295.4z"/>
				<g id="XMLID_451_">
					<path id="XMLID_467_" class="st11" d="M509.2,277.6c-23.5,0-42.6,8.1-42.6,18v6.5c0,9.9,19.1,18,42.6,18
						c23.5,0,42.6-8.1,42.6-18v-6.5C551.8,285.6,532.7,277.6,509.2,277.6z"/>
					<ellipse id="XMLID_458_" class="st12" cx="509.2" cy="295.6" rx="42.6" ry="18"/>
					<path id="XMLID_457_" class="st13" d="M551.8,295.3c0,9.9-19.1,18-42.6,18s-42.6-8.1-42.6-18c0-6.3,7.7-11.9,19.3-15.1
						c-10.3,2.9-17,7.6-17,13c0,8.8,18.1,16,40.3,16c22.3,0,40.3-7.1,40.3-16c0-5.4-6.7-10.1-17-13
						C544.1,283.4,551.8,289,551.8,295.3z"/>
					<g id="XMLID_452_">
						<g id="XMLID_454_">
							<path id="XMLID_456_" class="st21" d="M509.2,281.1c-13.5,0-24.4,4.6-24.4,10.3v3.8c0,5.7,10.9,10.3,24.4,10.3
								c13.5,0,24.4-4.6,24.4-10.3v-3.8C533.6,285.8,522.7,281.1,509.2,281.1z"/>
							<ellipse id="XMLID_455_" class="st22" cx="509.2" cy="291.5" rx="24.4" ry="10.3"/>
						</g>
						<ellipse id="XMLID_453_" class="st21" cx="509.5" cy="291.2" rx="17.1" ry="6.8"/>
					</g>
				</g>
			</g>
			<path id="XMLID_448_" class="st2" d="M492.7,292.1c-2.8,3.2-2.8,3.8,0,6.9c-3.6-2.4-4.3-2.4-7.9,0c2.8-3.2,2.8-3.8,0-6.9
				C488.4,294.5,489.1,294.5,492.7,292.1z"/>
		</g>
	</g>
</g>
<g id="XMLID_49_">
	<linearGradient id="XMLID_72_" gradientUnits="userSpaceOnUse" x1="174.5612" y1="241.9558" x2="174.5612" y2="88.8986">
		<stop  offset="0.3462" style="stop-color:#722D31"/>
		<stop  offset="1" style="stop-color:#99393E"/>
	</linearGradient>
	<path id="XMLID_65_" class="st23" d="M242.1,234.4c0.3-0.6,0.4-1.3,0.2-2L205,108c-0.2-0.5-0.5-0.9-0.8-1.2
		c-0.2-0.4-0.4-0.7-0.7-0.9c-0.2-0.4-0.4-0.7-0.7-0.9c-0.2-0.4-0.4-0.7-0.7-0.9c-0.2-0.4-0.4-0.7-0.7-0.9c-0.2-0.4-0.4-0.7-0.7-0.9
		c-0.2-0.4-0.4-0.7-0.7-0.9c-0.2-0.4-0.4-0.7-0.7-0.9c-0.2-0.4-0.4-0.7-0.7-0.9c-0.2-0.4-0.4-0.7-0.7-0.9c-0.2-0.4-0.4-0.7-0.7-0.9
		c-0.2-0.4-0.4-0.7-0.7-0.9c-0.2-0.4-0.4-0.7-0.7-0.9c-0.2-0.4-0.4-0.7-0.7-0.9c-0.2-0.4-0.4-0.7-0.7-0.9c-0.2-0.4-0.4-0.7-0.7-0.9
		c-0.2-0.4-0.4-0.7-0.7-0.9c-0.2-0.4-0.4-0.7-0.7-0.9c-0.2-0.4-0.4-0.7-0.7-0.9c-0.2-0.4-0.4-0.7-0.7-0.9c-0.3-0.7-1-1.2-1.7-1.2
		l-43.7,3.3c-1,0-1.5,0-6.7,16.4c-3.2,10.4-7.9,26.1-13.8,46.8c-16.1,56.1-17.9,65.3-17.9,67.4c0,0.6,0.3,1.2,0.8,1.4
		c0.1,0.4,0.4,0.7,0.7,0.9c0.1,0.4,0.4,0.7,0.7,0.9c0.1,0.4,0.4,0.7,0.7,0.9c0.1,0.4,0.4,0.7,0.7,0.9c0.1,0.4,0.4,0.7,0.7,0.9
		c0.1,0.4,0.4,0.7,0.7,0.9c0.1,0.4,0.4,0.7,0.7,0.9c0.1,0.4,0.4,0.7,0.7,0.9c0.1,0.4,0.4,0.7,0.7,0.9c0.1,0.4,0.4,0.7,0.7,0.9
		c0.1,0.4,0.4,0.7,0.7,0.9c0.1,0.4,0.4,0.7,0.7,0.9c0.1,0.4,0.4,0.7,0.7,0.9c0.1,0.4,0.4,0.7,0.7,0.9c0.1,0.4,0.4,0.7,0.7,0.9
		c0.1,0.4,0.4,0.7,0.7,0.9c0.1,0.4,0.4,0.7,0.7,0.9c0.1,0.4,0.4,0.7,0.7,0.9c0.1,0.4,0.4,0.7,0.7,0.9c0.2,0.6,0.6,1,1.2,1
		c0,0,0,0,0,0c6.9-0.4,21.4-1.6,43.1-3.6c0.7-0.1,1.4-0.7,1.6-1.6l3.3-13.9h18.9c0.1,0.1,0.1,0.1,0.2,0.1c0.2,0.4,0.4,0.7,0.7,0.9
		c0.2,0.4,0.4,0.7,0.7,0.9c0.2,0.4,0.4,0.7,0.7,0.9c0.2,0.4,0.4,0.7,0.7,0.9c0.2,0.4,0.4,0.7,0.7,0.9c0.2,0.4,0.4,0.7,0.7,0.9
		c0.2,0.4,0.4,0.7,0.7,0.9c0.2,0.4,0.4,0.7,0.7,0.9c0.2,0.4,0.4,0.7,0.7,0.9c0.2,0.4,0.4,0.7,0.7,0.9c0.2,0.4,0.4,0.7,0.7,0.9
		c0.2,0.4,0.4,0.7,0.7,0.9c0.2,0.4,0.4,0.7,0.7,0.9c0.2,0.4,0.4,0.7,0.7,0.9c0.2,0.4,0.4,0.7,0.7,0.9c0.2,0.4,0.4,0.7,0.7,0.9
		c0.3,0.7,1,1.2,1.7,1.2l38-2.9C241.3,235.3,241.8,234.9,242.1,234.4z"/>
	<linearGradient id="XMLID_73_" gradientUnits="userSpaceOnUse" x1="167.3741" y1="222.9774" x2="167.3741" y2="90.2217">
		<stop  offset="0" style="stop-color:#CB5F31"/>
		<stop  offset="1" style="stop-color:#DB972A"/>
	</linearGradient>
	<path id="XMLID_62_" class="st24" d="M107.8,222.8c0-3.1,6-25.4,17.9-67c11.9-41.5,18.4-62.3,19.5-62.3l43.8-3.3
		c0.3,0,0.6,0.2,0.7,0.6l37.2,124.4c0.2,0.6-0.1,1.1-0.6,1.2l-38,2.9c-0.3,0-0.6-0.2-0.7-0.6l-3.2-14.1c-0.1-0.4-0.4-0.6-0.7-0.6
		h-27.8c-0.3,0-0.6,0.3-0.7,0.6l-3.4,14.3c-0.1,0.4-0.3,0.6-0.6,0.6c-21.7,2-36.1,3.2-43.1,3.6C107.9,223,107.8,222.9,107.8,222.8z
		 M163,173.1h13.6c0.5,0,0.8-0.5,0.7-1.1l-6.7-37.8c-0.1-0.4-0.4-0.7-0.7-0.7h-0.3c-0.3,0-0.6,0.3-0.7,0.7l-6.7,37.8
		C162.2,172.6,162.6,173.1,163,173.1z"/>
	<path id="XMLID_53_" class="st25" d="M227.7,216.7c0.3-0.6,0.4-1.3,0.2-2L190.7,90.3c-0.3-0.9-1-1.5-1.8-1.4l-43.7,3.3
		c-1,0-1.5,0-6.7,16.4c-3.2,10.4-7.9,26.1-13.8,46.8c-16.1,56.1-17.9,65.3-17.9,67.4c0,0.8,0.5,1.5,1.3,1.5c0,0,0,0,0,0
		c6.9-0.4,21.4-1.6,43.1-3.6c0.7-0.1,1.4-0.7,1.6-1.6l3.3-13.9h27.3l3.1,13.8c0.2,1,1,1.7,1.8,1.6l38-2.9
		C226.9,217.6,227.4,217.3,227.7,216.7z M188.5,217.9l-3.1-13.8c-0.2-1-0.9-1.6-1.7-1.6h-27.8c-0.8,0-1.5,0.7-1.7,1.6l-3.4,14
		c-20.4,1.9-34.5,3-41.7,3.5c0.8-4.4,4.7-20,17.7-65.3c14-48.7,17.8-59.6,18.9-61.5l43.1-3.3l37,123.5L188.5,217.9z"/>
	<linearGradient id="XMLID_74_" gradientUnits="userSpaceOnUse" x1="161.2395" y1="153.3215" x2="178.4393" y2="153.3215">
		<stop  offset="0" style="stop-color:#F0CE2D"/>
		<stop  offset="1" style="stop-color:#F0CE2D"/>
	</linearGradient>
	<path id="XMLID_50_" class="st26" d="M171.7,133.9c-0.2-1-0.9-1.7-1.8-1.7h-0.3c-0.8,0-1.6,0.7-1.8,1.7l-6.7,37.8
		c-0.1,0.7,0,1.3,0.4,1.9c0.3,0.5,0.9,0.8,1.4,0.8h13.6c0.5,0,1.1-0.3,1.4-0.8c0.3-0.5,0.5-1.2,0.4-1.9L171.7,133.9z M163.5,171.8
		l6.4-36.1l6.4,36.1H163.5z"/>
</g>
<g id="XMLID_56_">
	<linearGradient id="XMLID_75_" gradientUnits="userSpaceOnUse" x1="532.2832" y1="240.8325" x2="532.2832" y2="89.7214">
		<stop  offset="0.3462" style="stop-color:#722D31"/>
		<stop  offset="1" style="stop-color:#99393E"/>
	</linearGradient>
	<path id="XMLID_68_" class="st27" d="M590,107.3c-0.1-0.2-0.2-0.4-0.4-0.6c-0.1-0.1-0.3-0.2-0.4-0.3c-0.1-0.2-0.2-0.4-0.4-0.6
		c-0.1-0.1-0.3-0.2-0.4-0.3c-0.1-0.2-0.2-0.4-0.4-0.6c-0.1-0.1-0.3-0.2-0.4-0.3c-0.1-0.2-0.2-0.4-0.4-0.6c-0.1-0.1-0.3-0.2-0.4-0.3
		c-0.1-0.2-0.2-0.4-0.4-0.6c-0.1-0.1-0.3-0.2-0.4-0.3c-0.1-0.2-0.2-0.4-0.4-0.6c-0.1-0.1-0.3-0.2-0.4-0.3c-0.1-0.2-0.2-0.4-0.4-0.6
		c-0.1-0.1-0.3-0.2-0.4-0.3c-0.1-0.2-0.2-0.4-0.4-0.6c-0.1-0.1-0.3-0.2-0.4-0.3c-0.1-0.2-0.2-0.4-0.4-0.6c-0.1-0.1-0.3-0.2-0.4-0.3
		c-0.1-0.2-0.2-0.4-0.4-0.6c-0.1-0.1-0.3-0.2-0.4-0.3c-0.1-0.2-0.2-0.4-0.4-0.6c-0.1-0.1-0.3-0.2-0.4-0.3c-0.1-0.2-0.2-0.4-0.4-0.6
		c-0.1-0.1-0.3-0.2-0.4-0.3c-0.1-0.2-0.2-0.4-0.4-0.6c-0.1-0.1-0.3-0.2-0.4-0.3c-0.1-0.2-0.2-0.4-0.4-0.6c-0.1-0.1-0.3-0.2-0.4-0.3
		c-0.1-0.2-0.2-0.4-0.4-0.6c-0.1-0.1-0.3-0.2-0.4-0.3c-0.1-0.2-0.2-0.4-0.4-0.6c-0.1-0.1-0.3-0.2-0.4-0.3c-0.1-0.2-0.2-0.4-0.4-0.6
		c-0.1-0.1-0.3-0.2-0.4-0.3c-0.1-0.2-0.2-0.4-0.4-0.6c-0.1-0.1-0.3-0.2-0.4-0.3c-0.1-0.2-0.2-0.4-0.4-0.6c-0.1-0.1-0.3-0.2-0.4-0.3
		c-0.1-0.2-0.2-0.4-0.4-0.6c-0.4-0.4-0.9-0.6-1.5-0.6L536,93c-1,0.1-1.8,1-1.8,2.2v70.9c0,2.3,0,4.2-0.1,5.5c0,1.2-0.3,2.7-0.6,4.5
		c-0.3,1.6-0.8,2.9-1.4,3.6c-0.4,0.6-1.1,1.1-1.8,1.6v-65.1c0-0.8-0.4-1.5-1-1.9c-0.2-0.4-0.4-0.7-0.8-0.9c-0.2-0.4-0.4-0.7-0.8-0.9
		c-0.2-0.4-0.4-0.7-0.8-0.9c-0.2-0.4-0.4-0.7-0.8-0.9c-0.2-0.4-0.4-0.7-0.8-0.9c-0.2-0.4-0.4-0.7-0.8-0.9c-0.2-0.4-0.4-0.7-0.8-0.9
		c-0.2-0.4-0.4-0.7-0.8-0.9c-0.2-0.4-0.4-0.7-0.8-0.9c-0.2-0.4-0.4-0.7-0.8-0.9c-0.2-0.4-0.4-0.7-0.8-0.9c-0.2-0.4-0.4-0.7-0.8-0.9
		c-0.2-0.4-0.4-0.7-0.8-0.9c-0.2-0.4-0.4-0.7-0.8-0.9c-0.2-0.4-0.4-0.7-0.8-0.9c-0.2-0.4-0.4-0.7-0.8-0.9c-0.2-0.4-0.4-0.7-0.8-0.9
		c-0.2-0.4-0.4-0.7-0.8-0.9c-0.2-0.4-0.4-0.7-0.8-0.9c-0.3-0.6-0.9-1.1-1.5-1.1l-37.4-3.5c-0.5-0.1-1.1,0.2-1.5,0.6
		c-0.4,0.4-0.6,1-0.6,1.6v75c0,16.4,4.3,29.2,12.6,38.1c0.3,0.3,0.5,0.6,0.8,0.9c0.3,0.3,0.5,0.6,0.8,0.9c0.3,0.3,0.5,0.6,0.8,0.9
		c0.3,0.3,0.5,0.6,0.8,0.9c0.3,0.3,0.5,0.6,0.8,0.9c0.3,0.3,0.5,0.6,0.8,0.9c0.3,0.3,0.5,0.6,0.8,0.9c0.3,0.3,0.5,0.6,0.8,0.9
		c0.3,0.3,0.5,0.6,0.8,0.9c0.3,0.3,0.5,0.6,0.8,0.9c0.3,0.3,0.5,0.6,0.8,0.9c0.3,0.3,0.5,0.6,0.8,0.9c0.3,0.3,0.5,0.6,0.8,0.9
		c0.3,0.3,0.5,0.6,0.8,0.9c0.3,0.3,0.5,0.6,0.8,0.9c0.3,0.3,0.5,0.6,0.8,0.9c0.3,0.3,0.5,0.6,0.8,0.9c0.3,0.3,0.5,0.6,0.8,0.9
		c0.3,0.3,0.5,0.6,0.8,0.9c0.7,0.8,1.5,1.7,2.3,2.4c9.3,8.9,21.8,13.5,37,13.5c15.7,0,28.2-4.5,37.2-13.3c9-8.9,13.6-22.3,13.6-39.9
		v-78.4c0-0.6-0.2-1.2-0.6-1.6C590.3,107.5,590.1,107.4,590,107.3z"/>
	<linearGradient id="XMLID_76_" gradientUnits="userSpaceOnUse" x1="527.2651" y1="226.8526" x2="527.2651" y2="91.0704">
		<stop  offset="0" style="stop-color:#CB5F31"/>
		<stop  offset="1" style="stop-color:#DB972A"/>
	</linearGradient>
	<path id="XMLID_66_" class="st28" d="M474.8,173.1V95.5c0-0.5,0.4-0.9,0.9-0.9l39.4,3.6c0.4,0,0.7,0.4,0.7,0.9v69.6
		c0,3,0.1,5.4,0.2,7.2c0.2,1.8,0.6,3.7,1.3,5.7c0.7,2,1.9,3.5,3.6,4.4c1.7,0.9,3.8,1.3,6.5,1.3c2.2,0,4-0.4,5.4-1.1
		c1.4-0.7,2.5-1.6,3.3-2.5c0.8-1,1.4-2.4,1.8-4.4c0.4-1.9,0.6-3.6,0.7-4.9c0-1.4,0.1-3.3,0.1-5.8V95.4c0-0.5,0.3-0.9,0.8-0.9
		l39.4-3.4c0.5,0,0.9,0.4,0.9,0.9v81.2c0,17.9-4.6,31.3-13.9,40.3c-9.3,9-22.1,13.4-38.4,13.4c-15.8,0-28.5-4.5-38.2-13.6
		C479.6,204.1,474.8,190.8,474.8,173.1z"/>
	<linearGradient id="XMLID_77_" gradientUnits="userSpaceOnUse" x1="523.1861" y1="212.4816" x2="523.1861" y2="97.1964">
		<stop  offset="0" style="stop-color:#E4B026;stop-opacity:0.4"/>
		<stop  offset="1" style="stop-color:#F0CE2D"/>
	</linearGradient>
	<path id="XMLID_61_" class="st29" d="M523.4,212.5c-13.7,0-24.3-3.7-32.3-11.3c-7.6-7.2-11.4-17.8-11.4-32.6v-67.8l23.1,2.1v61.4
		c0,3.4,0.1,6,0.3,8.1c0.2,2.7,0.9,5.5,1.9,8.4c1.6,4.4,4.3,7.7,8,9.7c2.9,1.6,6.3,2.3,10.4,2.3c3.4,0,6.5-0.7,9.1-2
		c2.6-1.3,4.7-3,6.3-5c1.8-2.2,3.1-5.1,3.8-8.7c0.5-2.6,0.8-4.8,0.9-6.7c0.1-1.5,0.1-3.6,0.1-6.2V99.2l23.1-2v71.5
		c0,15.1-3.5,25.8-10.8,32.9C548.3,208.8,537.4,212.5,523.4,212.5z"/>
	<linearGradient id="XMLID_78_" gradientUnits="userSpaceOnUse" x1="519.9229" y1="199.0088" x2="519.9229" y2="100.5541">
		<stop  offset="0" style="stop-color:#E4B026;stop-opacity:0.4"/>
		<stop  offset="1" style="stop-color:#FFFFFF;stop-opacity:0.5"/>
	</linearGradient>
	<path id="XMLID_60_" class="st30" d="M520.1,199c-11.9,0-20.9-3.1-27.6-9.3c-6-5.6-8.8-14-8.8-26.4v-59.1l8.4,0.8v53.9
		c0,3.6,0.1,6.5,0.3,8.9c0.3,3.4,1.1,7,2.4,10.6c2.2,6.3,6.3,11.1,11.7,14c3.9,2.1,8.4,3.1,13.6,3.1c4.5,0,8.6-0.9,12.2-2.7
		c3.5-1.8,6.5-4.1,8.8-6.9c2.7-3.3,4.4-7.3,5.5-12.3c0.6-3.1,1-5.7,1.1-8.2c0.1-1.6,0.1-3.8,0.1-6.5v-57.6l8.4-0.7v62.7
		c0,12.6-2.7,21.4-8.3,26.8C541.6,196,532.3,199,520.1,199z"/>
	<path id="XMLID_57_" class="st31" d="M578.8,89.7l-39.4,3.4c-1.1,0.1-1.9,1.1-1.9,2.2v73.4c0,2.4,0,4.3-0.1,5.7
		c0,1.3-0.3,2.8-0.6,4.7c-0.4,1.7-0.9,3-1.5,3.8c-0.7,0.8-1.6,1.6-2.9,2.2c-1.3,0.6-2.9,1-4.9,1c-2.5,0-4.5-0.4-6-1.2
		c-1.4-0.7-2.4-1.9-3-3.7c-0.7-1.9-1.1-3.7-1.2-5.4c-0.1-1.7-0.2-4.1-0.2-7.1V99.1c0-1.2-0.8-2.1-1.9-2.2l-39.4-3.6
		c-0.6-0.1-1.1,0.2-1.5,0.6c-0.4,0.4-0.7,1-0.7,1.7v77.6c0,18,5,31.8,14.9,41.1c9.8,9.3,23,14,39,14c16.6,0,29.8-4.6,39.2-13.8
		c9.5-9.2,14.3-23.1,14.3-41.3V92c0-0.6-0.2-1.2-0.7-1.6C579.9,89.9,579.3,89.7,578.8,89.7z M578.5,173.1c0,17.4-4.5,30.6-13.5,39.3
		c-9,8.7-21.6,13.1-37.6,13.1c-15.4,0-28-4.5-37.4-13.3c-9.3-8.8-14.1-21.9-14.1-39.1V96l38.6,3.5v69.2c0,3.1,0.1,5.5,0.2,7.3
		c0.2,1.9,0.6,3.9,1.4,6.1c0.8,2.4,2.3,4.1,4.2,5.1c1.8,1,4.2,1.5,7,1.5c2.3,0,4.3-0.4,5.9-1.2c1.6-0.8,2.8-1.8,3.7-2.9
		c0.9-1.1,1.6-2.8,2.1-4.9c0.4-2,0.7-3.8,0.7-5.2c0.1-1.4,0.1-3.4,0.1-5.8V95.8l38.6-3.4V173.1z"/>
</g>
</svg>
